<mxfile host="app.diagrams.net" modified="2022-10-27T20:07:06.224Z" agent="5.0 (X11)" etag="twYpZj7fxqFkwQpfP_I-" version="20.5.1" type="github">
  <diagram name="Page-1" id="c9db0220-8083-56f3-ca83-edcdcd058819">
    <mxGraphModel dx="1842" dy="1162" grid="1" gridSize="10" guides="1" tooltips="1" connect="1" arrows="1" fold="1" page="1" pageScale="1.5" pageWidth="826" pageHeight="1169" background="#FCE7CD" math="0" shadow="0">
      <root>
        <mxCell id="0" style=";html=1;" />
        <mxCell id="1" style=";html=1;" parent="0" />
        <mxCell id="AgWrFcbd04pxLsHcmdk1-20" value="Navbar" style="html=1;shadow=0;dashed=0;fontSize=18;align=left;spacing=15;fillColor=#182E3E;strokeColor=#FFFFFF;fontColor=#FFFFFF;" vertex="1" parent="1">
          <mxGeometry y="10" width="1210" height="70" as="geometry" />
        </mxCell>
        <mxCell id="AgWrFcbd04pxLsHcmdk1-21" value="Home" style="fillColor=none;strokeColor=none;fontSize=24;fontColor=#FFFFFF;align=center;" vertex="1" parent="AgWrFcbd04pxLsHcmdk1-20">
          <mxGeometry width="90" height="40" relative="1" as="geometry">
            <mxPoint x="270" y="15" as="offset" />
          </mxGeometry>
        </mxCell>
        <mxCell id="AgWrFcbd04pxLsHcmdk1-22" value="Descargar" style="fillColor=none;strokeColor=none;fontSize=21;fontColor=#FFFFFF;align=center;" vertex="1" parent="AgWrFcbd04pxLsHcmdk1-20">
          <mxGeometry width="50" height="40" relative="1" as="geometry">
            <mxPoint x="440" y="12" as="offset" />
          </mxGeometry>
        </mxCell>
        <mxCell id="AgWrFcbd04pxLsHcmdk1-29" value="ASISTENCIA CETÂº30" style="text;html=1;strokeColor=none;fillColor=none;align=center;verticalAlign=middle;whiteSpace=wrap;rounded=0;fontSize=17;fontStyle=3;fontColor=#FFFFFF;" vertex="1" parent="AgWrFcbd04pxLsHcmdk1-20">
          <mxGeometry x="75" y="11.666666666666668" width="145" height="40.833333333333336" as="geometry" />
        </mxCell>
        <mxCell id="AgWrFcbd04pxLsHcmdk1-5" value="" style="text;html=1;strokeColor=none;fillColor=none;align=center;verticalAlign=middle;whiteSpace=wrap;rounded=0;image=data:image/png,iVBORw0KGgoAAAANSUhEUgAAAJYAAACWCAMAAAAL34HQAAABJlBMVEX////9/f0RSpQBXbD+/v4AAAD39/fn5+fNzc2srKz5+vxFX5NGY51Ac7f6+vr19fXI0eLu7u7d4+2hr9GottM9WZSUlJTc3Ny+vr7ExMTKysrk5OR+fn7e3t6mpqZCQkK8yN0YYLCHnciGhoZjY2O1tbUXTJCcnJyfqsVgYGAQQ4ZfeqtthbFubm6YmJhWVlaImbwqKioMMWJNTU0YGBhsbGwOPHh3kcIeHh42b7ZoisDm6vEhS4HT2eWZpsMzMzNUf7xWb6REUGNJTVk7UW8yT3YbSIMjT5YsTXmyvNFNapEvWI5neZGPpMtWWWN7jLRKW3RffKJnanQ8Q1R7iqkaPWoVL1GlqrYgIy0QHzhKbpx4hphbcIxFSVQ4SWF/hI5eaH4iOVn5ztayAAAO9ElEQVR4nM1cC1vayhZNNE+qCUElCY+IhoC0BrTI8YHvqmhta89p77n3tvfac///n7izZ/KYQBKC8jjr+9AEErLYs1iz92QGhnkNWEXQyroptyudm9PB4PG6bluGVNVUheVe9cavAMcKqqhLjmX3Ptw3ljDubr9U2k5JF1VhIcQ4VlG1smTIRffL7d1SiMb9dQ9CVtYEhZ07KUET9ZLTrLSuTxtLQ7i7aVWajlQV59qWOFBVybBst3tLcXrao0LWdYuyqYvavNqSqLzktCutm9OQ07uHPsv1d1YCYqdE/mWQ/6w5YZXjQCGVvw04reyceZfO5XeptvyC2hLkP9u2JCo35SLYQXD1wd5ZjmZeOB+EbfkBtyXIf0bEApXbdVrlT7X+8AU59eEqeP30uW6D/GdiZb4dWEX3w31oB1dIULHH585C+d/ddipFeQZWximBHdyEgVo5L+RSzumvh/KfgZVBoETPDkKVD/byKZwIovKfqpXhxtOxyp8DlQ92awmNN3x24XwjCNntlylZGa3y+6DxrtZHRJ7yFurDu6laWXynly6oWCD5B44B8m+/wspiVQ6Cwm8mljROVDhR1NBOuVRlGBW2RAFtoCfRQ4SHyGgqfrOo/F9qZXSnF9rBbuBQpQNXEvarCl8/KDHSfvGoxDg2ep7XGca8aMlGh++UepubLlNx/JBR8gcrsya1Mo5O7e78QF3thCJnN2WGwbSqVoWxLQb9DWnBhsaj4FmIUkArKn9iZRPIn6gcp3bXQaA2ziPdi8iLPi2nznVMxtzMQGtI/vdfM1tZROW+HQyePEEF0HnVo2W4Te6ixJgHFK2WoyfQYqLyP81mZVRq9xyofPdh1A1CWq6ljdDqyFIyrWH5j8vKApUXkcoDQa3HukEVLkoaEZ24iWhdZGrEIGSh/BtY/p6VjTDzVE5Su0asoChoB3pIi3FlxnEnooXlP9bKIgXMXSAoNZ4TwO46ekDL6Rpdh3FahsTwTUMz60ZqI/ro0/KPycr81M5FduAd9y4pX/EgOM2yYmmsBR7KGk1DYXTLMhnLsjS0YTCqhYxVkhjG0JPfJSL/ZyL/sC2HC5iVncK86iha/kFW5slfcpAd+I23sZcgqHLJlFAEFA1D9Tc0TfEOUDWB/IMIcpIj4c/G6oYhCeQIQTJ1Zfh9c/mnUP5hVsYhi/7qB+opKYdSbR7BRJ+Bxyj6GzwveYcU+Qr8k/lN/PeIl4FJBQ7piviDbaJNd1SxtPxDK2N+J5wGu8mCEnqYQSmdFsic0FL3bbZygYLkoAMOeExY6XhnxkALc39iZSWdecQO9dBPyVdk9Il1DpIExMYpl8saI5TLMt4WQlqOT0tHmzL0UD1+U1M7/AE6s8TzhmLjzRhE5I9SDIf5C6K1nswJBeuCPyqTTQnHjMAMQ0VodXxaEm+gQKEv4QHfREbBw2aR3xcQ3/D0IUTk/7HIVCBcg34KLT2MfSotuLpHy8G0hHodRdDAx3WAtXbAW8nXoeS/wTS/QLieUtrQCLmk02pSjejwXoBBYOi4fb6HBHYQL66AmJ/8vGGMyi1s5JMPbvLYzsfR6hwhlWNawr7NYMn7hMuMcISFf8S7abQQ+tCUjT+QP9chh1lJbkbvSzaOVsVG+8QgLP4CGwSKj2ge8JsCox54tFpjaNUgRrcVlJcXr6EZzxNznkqEVs+2bT2WlsTbHi0W2Snnn8Bf6NB5Q5xQI3bSWakQrLuWxahVBzfj4Czp0B5/4LugZ1dmLC1l80gjtELACa7m01LH0eLOIVhfiybqRiSrA33PuyTVIzOlaNmyLFdjaaG2c4ZpaSUb2ylpxLG0zoDVvetUGU4QTfsGdh8SjnUzaosp83VriJZ/ejZaOUh2Gl+aEroeq+py7zTFvLJKnuHqvDtKSwZDU448WvU0Wg8QnWfbhIITmrFNzCu+U2xjo8xACxxulJYR+pb3fUxCH0zrtCfrKhBhhbJRuUk2L/S+RjZaWpSWVCyqUZfHlpsEFsbEGtdtycuWWM03r9hMGXU+LpuJFmNHaKEjRNwnVuH1CwWJj0/MohkmTyzLKAvEXDgFzAue3IkzL7aLPqTACNp4WlKEFvo8MiO0+H0/ZnIoh1HkILu5q1t6kFqyyLxcXK8W4k7Anti5IGlgt16vV5JoCZs0LZR68PUu6ejVC36/hcw4MSHndnATFksiVWdoUhOb126seZUuomlgN4kWEzUIEx/d0vzPxl+UmSQUIOG6rzhVrHeGA4DqPfPi4qCazaapcpxmYJjwXNkwxPAIyZDgn0he81F2mnJJ8LbltqPFvjsgt0t6HV/viqIIAqoUJaL6jb6wEIBlvb2xjbJXkqmaKJarul6SK99+e/v27feyuADoG+jS/+gUDajIQFxiVSoZjmw1i+7mn78h/FNaAL7Dlf/VQXWPicp+pC5UvVpt2+21Opv7B3++f//+1pLnjiK67vt/H1x065W2gx1Ccpo/Hjcad3eNu7cEG2/mDv/SiMbjyq6I/LQkFz8t/a2wU0W0JNnuPS6aCY0VB4pPGIPAWfNgZfEAWj9NEWmralqVDmTNK2pu0YD64hElgSwMJKFw/RfClZSdki6LnQ7SxrshOW38dHAGoZZLst2CjmcQPz4wP1rg9B9JsFC+ohtNtwsdz/kEtHKFbMhlpwXFWOOXIeJOkUXdoWzXn6EZY9OaWFq1reVs2KplpgXF2EdL9zIIRcOqv19KHYmI0ipkJAUoZKQFmU3DNkmwYKBZRCbR+wDhSh6JiNJan4DWQzZaOJP/DyovvCNQuMqlwCSy0VqbgNZ6NlpQuT4WS0HGjCofpPq224Xs9CHptBhax5ceVn0cR7C1NQEtbA6fHL+8wOGiTCJp4CaGVi0x1fRxmJ0WOOkbzxzocHkmsZdQA8TRYsdgAlo5ZA6DXwYVLLikZxJLySYxY1oPtDkE11Q03WwSk4ivfWZMqw/m8Ms3h0i4kEngrrE2f1rceVywiKemm8RMaRXQZU9/mdrIvRfaJGIr/lnSYp+wk1aFkRfBJJDqW89JJjFLWiNOSjFWwCQqOFx7MefOkBYeA4w4KX1ZUL1d/waqjxndnSEtMIfHdsRJqetSmUSMScyOVp+kWbHBYkD1aSbxIlonGWjhAaQfTWnYHMJwqUEmsTFiEjOjhZ20YogxevfDlWISs6LF7cU7aTRcvkksDZvErGiBk27Yw93OEC/cNZJMYuj8GdHCo23ISdWUHN/rGmNNYka08slOGglXYBJDt4BmQwvSrCQnpYBMQvdNIlpkz4ZWqpPS4SL5MzaJiOpnQgvupvjV/ZhwkfwZTCJy4zOG1toZwWgp3YcHwuUYWuejCXxCuFhsEnVcbhQiL4zQyohkWmAOjZ8pTkpd3sufwSR2qU8xA1qkYE1zUvrypGu8HiqyZ0AL0qy7dCeNhCsYibsKTSIDre3C9iS0sJN+QjlptnlZoHqn6OIxifWwxh1Pq8CeTUILD/0VpXQnpcMVFtmhSWSgdZg/nICWepXJSaPhCops/6Spa2s9qzmEgQmL7GB2RJRWbQJa+Vha2EmTc9JYXqB6r8j2b6tHaeVOMrM6ycXRwubwsZnJHMJwjebPQ4OUuYdtCscRIpfUK59rAhtH62xAjZNOEq6hIntkpJm+RbkaoXXIUK+NnIbfDZtDak4ai8hIXDwt6krDSiskH+vRyo/PSePDRUwizJ+TafVHvpartWRimBa+iT8mJ00OF20SybQut0ZxmE6rliUnjQ2XZxLflrz8OZlW7N2bVFp40sokTkrxGiqyp3lzBQrWN+Nz0vhwRU0iQkvLT4LCEC084+HnRE4aCVdYZPcjtEjWmRlbZxFapGBNru7HgDaJc9qA+pfbhcLh6ll/fbnWPzsmOwWy8zncyR+vFQon6NXtrQJNC9KsiZ2UDhc9EhfS0i6XT/L5k+Na/vPyWv5h6yRfuwx2DvP5cGc7X1uFQ5ePQ17cC52UChdVZD9RsTpe+7y1tb2G2K1tL+Odz3jncHmV3rkkO8fHa+jRD2jVJslJY8PlFdlY9fmA1fJ6Lvf5Us3llwu5/jHsnHg7W2hn+ySXq+GdWi53+DmXW1/L5daWV31e6pV3x+nlawVok7jK+S24vHyMuuYt6J6Pt8gjeQcOhcfypcfr4aVOSoEusmsv+A7SILw04qQxg8oThYsustnJ7iMOA+4rKufZqvux4aJMAppg9eWAcBeWJs5Jk8IV5M+FSJI1OVD3+URy0lcGK1pkhybxUhAnfYU5BLTorjH/yg57CuZAhSvIn2EkjjSH94eN0hxqM3IYFz4N5tCwX2cOPrwiG6v+6t0IdinsUTjfGcWGV91PYy26ZxJ4aOn1mKC6HwMIF/L61lQmeX1/tTn4gK5RNyz7r8cGBTJdLxVwzNJb+qTGD+f15hDwUhAvU27aFbdXx2h1No9gkuFfadMQf8ERf+53W+Sces+1m4auTe2HIbyfzIBpoLJF0K50/jdmMmjpI3r9/bee3fTOkR34hZuMo1nZeCmqponlalX3IBnFDsx+/FFNmt9a3oFWfnYt0z+nWhan/LsjyJ7wFGOYZazCH61q2M/wKww7SZOB8TKi07oliSoGekpRkIVNkRVmFrVKVXdcSMNQNh3f/0GqgKeZC7TLTpnUCGAme9r6DUgVqGnm8wIXzGSPnfKFpxBQ08znBliGU4cOKXY2B4zINL7Cypg5/34TWb8BzRgzmwOPyMDipvk2IQDWb1Sw6kemJ5BUARY3zbkJAbD4rBW7fgPuii/BSoF5NyEALz7D43JD03vxcG2wuGnuANW7ZP1G5HmcGnfb00n3XgBYfIbvwURm7uEpM7C4aTHBIuY1unL2gfQ6+qKCRS0+uwrNC49ARhc3zRvh4rPgVhqeTzf/XicKvPgMm5d/AxnXzZ3FWFYIvPiMWi/OwqDa8wJ6nSjClbM1vF8jvc6CLCtEsHIWrxeHuvlu4U3I4KpbapP14izDrfu9zoKD5a2cxeZ1hjvDxfU6USjIvHCX/U5FnWHjA/Q6C9U7AVY9Nq8nr9dZfBMCAvMiifICe50ognoDeh1zgb1OFGG9sZhEOQk483pETfjH38CyKEAzfhosfWovuteJAplXSf7+3TKn1YT/B1Wsc57YOaKiAAAAAElFTkSuQmCC;imageWidth=69;imageHeight=60;fontSize=23;fontColor=#FFFFFF;" vertex="1" parent="AgWrFcbd04pxLsHcmdk1-20">
          <mxGeometry y="-2.916666666666667" width="49.995407407407406" height="70" as="geometry" />
        </mxCell>
        <mxCell id="AgWrFcbd04pxLsHcmdk1-44" value="&lt;div align=&quot;center&quot;&gt;&lt;b&gt;&lt;font style=&quot;font-size: 19px;&quot;&gt;Que es el QR ?&lt;br&gt;&lt;/font&gt;&lt;/b&gt;&lt;/div&gt;" style="html=1;shadow=0;dashed=0;shape=mxgraph.bootstrap.rrect;rSize=5;strokeColor=#FFFFFF;html=1;whiteSpace=wrap;fillColor=#182E3E;fontColor=#FFFFFF;verticalAlign=bottom;align=center;spacing=20;fontSize=14;" vertex="1" parent="1">
          <mxGeometry x="80" y="120" width="250" height="230" as="geometry" />
        </mxCell>
        <mxCell id="AgWrFcbd04pxLsHcmdk1-45" value="Image cap" style="html=1;shadow=0;dashed=0;shape=mxgraph.bootstrap.topButton;rSize=5;perimeter=none;whiteSpace=wrap;fillColor=#182E3E;strokeColor=#FFFFFF;fontColor=#FFFFFF;resizeWidth=1;fontSize=18;" vertex="1" parent="AgWrFcbd04pxLsHcmdk1-44">
          <mxGeometry width="250" height="180" relative="1" as="geometry" />
        </mxCell>
        <UserObject label="" link="https://www.draw.io" id="AgWrFcbd04pxLsHcmdk1-52">
          <mxCell style="text;html=1;strokeColor=none;fillColor=none;whiteSpace=wrap;align=center;verticalAlign=middle;fontColor=#FFFFFF;fontStyle=4;fontSize=19;image=data:image/svg+xml,PHN2ZyB2aWV3Qm94PSIwIDAgMTAyMyAxMDIzIiBoZWlnaHQ9IjEwMjMiIHdpZHRoPSIxMDIzIiBzdHlsZT0ibWF4LXdpZHRoOiAxMDAlO2hlaWdodDogYXV0bzsiIHhtbG5zOnhsaW5rPSJodHRwOi8vd3d3LnczLm9yZy8xOTk5L3hsaW5rIiB4bWw6c3BhY2U9InByZXNlcnZlIiB4bWxucz0iaHR0cDovL3d3dy53My5vcmcvMjAwMC9zdmciPiYjeGE7PGRlZnM+PG1hc2sgaWQ9InFybWFzayI+PGcgZmlsbD0iI2ZmZmZmZiI+PGc+JiN4YTs8ZyB0cmFuc2Zvcm09InRyYW5zbGF0ZSgzMTAsNjIpIHNjYWxlKDUuMzIxNjY2NjY2NjY2NykiPjxyZWN0IGhlaWdodD0iNiIgd2lkdGg9IjYiLz48L2c+JiN4YTs8ZyB0cmFuc2Zvcm09InRyYW5zbGF0ZSgzNDEsNjIpIHNjYWxlKDUuMzIxNjY2NjY2NjY2NykiPjxyZWN0IGhlaWdodD0iNiIgd2lkdGg9IjYiLz48L2c+JiN4YTs8ZyB0cmFuc2Zvcm09InRyYW5zbGF0ZSgzNzIsNjIpIHNjYWxlKDUuMzIxNjY2NjY2NjY2NykiPjxyZWN0IGhlaWdodD0iNiIgd2lkdGg9IjYiLz48L2c+JiN4YTs8ZyB0cmFuc2Zvcm09InRyYW5zbGF0ZSg1NTgsNjIpIHNjYWxlKDUuMzIxNjY2NjY2NjY2NykiPjxyZWN0IGhlaWdodD0iNiIgd2lkdGg9IjYiLz48L2c+JiN4YTs8ZyB0cmFuc2Zvcm09InRyYW5zbGF0ZSg1ODksNjIpIHNjYWxlKDUuMzIxNjY2NjY2NjY2NykiPjxyZWN0IGhlaWdodD0iNiIgd2lkdGg9IjYiLz48L2c+JiN4YTs8ZyB0cmFuc2Zvcm09InRyYW5zbGF0ZSg2MjAsNjIpIHNjYWxlKDUuMzIxNjY2NjY2NjY2NykiPjxyZWN0IGhlaWdodD0iNiIgd2lkdGg9IjYiLz48L2c+JiN4YTs8ZyB0cmFuc2Zvcm09InRyYW5zbGF0ZSgzMTAsOTMpIHNjYWxlKDUuMzIxNjY2NjY2NjY2NykiPjxyZWN0IGhlaWdodD0iNiIgd2lkdGg9IjYiLz48L2c+JiN4YTs8ZyB0cmFuc2Zvcm09InRyYW5zbGF0ZSgzNDEsOTMpIHNjYWxlKDUuMzIxNjY2NjY2NjY2NykiPjxyZWN0IGhlaWdodD0iNiIgd2lkdGg9IjYiLz48L2c+JiN4YTs8ZyB0cmFuc2Zvcm09InRyYW5zbGF0ZSgzNzIsOTMpIHNjYWxlKDUuMzIxNjY2NjY2NjY2NykiPjxyZWN0IGhlaWdodD0iNiIgd2lkdGg9IjYiLz48L2c+JiN4YTs8ZyB0cmFuc2Zvcm09InRyYW5zbGF0ZSg0MzQsOTMpIHNjYWxlKDUuMzIxNjY2NjY2NjY2NykiPjxyZWN0IGhlaWdodD0iNiIgd2lkdGg9IjYiLz48L2c+JiN4YTs8ZyB0cmFuc2Zvcm09InRyYW5zbGF0ZSg0OTYsOTMpIHNjYWxlKDUuMzIxNjY2NjY2NjY2NykiPjxyZWN0IGhlaWdodD0iNiIgd2lkdGg9IjYiLz48L2c+JiN4YTs8ZyB0cmFuc2Zvcm09InRyYW5zbGF0ZSg1MjcsOTMpIHNjYWxlKDUuMzIxNjY2NjY2NjY2NykiPjxyZWN0IGhlaWdodD0iNiIgd2lkdGg9IjYiLz48L2c+JiN4YTs8ZyB0cmFuc2Zvcm09InRyYW5zbGF0ZSg1NTgsOTMpIHNjYWxlKDUuMzIxNjY2NjY2NjY2NykiPjxyZWN0IGhlaWdodD0iNiIgd2lkdGg9IjYiLz48L2c+JiN4YTs8ZyB0cmFuc2Zvcm09InRyYW5zbGF0ZSg1ODksOTMpIHNjYWxlKDUuMzIxNjY2NjY2NjY2NykiPjxyZWN0IGhlaWdodD0iNiIgd2lkdGg9IjYiLz48L2c+JiN4YTs8ZyB0cmFuc2Zvcm09InRyYW5zbGF0ZSg2ODIsOTMpIHNjYWxlKDUuMzIxNjY2NjY2NjY2NykiPjxyZWN0IGhlaWdodD0iNiIgd2lkdGg9IjYiLz48L2c+JiN4YTs8ZyB0cmFuc2Zvcm09InRyYW5zbGF0ZSgzMTAsMTI0KSBzY2FsZSg1LjMyMTY2NjY2NjY2NjcpIj48cmVjdCBoZWlnaHQ9IjYiIHdpZHRoPSI2Ii8+PC9nPiYjeGE7PGcgdHJhbnNmb3JtPSJ0cmFuc2xhdGUoNDAzLDEyNCkgc2NhbGUoNS4zMjE2NjY2NjY2NjY3KSI+PHJlY3QgaGVpZ2h0PSI2IiB3aWR0aD0iNiIvPjwvZz4mI3hhOzxnIHRyYW5zZm9ybT0idHJhbnNsYXRlKDQzNCwxMjQpIHNjYWxlKDUuMzIxNjY2NjY2NjY2NykiPjxyZWN0IGhlaWdodD0iNiIgd2lkdGg9IjYiLz48L2c+JiN4YTs8ZyB0cmFuc2Zvcm09InRyYW5zbGF0ZSg0NjUsMTI0KSBzY2FsZSg1LjMyMTY2NjY2NjY2NjcpIj48cmVjdCBoZWlnaHQ9IjYiIHdpZHRoPSI2Ii8+PC9nPiYjeGE7PGcgdHJhbnNmb3JtPSJ0cmFuc2xhdGUoNDk2LDEyNCkgc2NhbGUoNS4zMjE2NjY2NjY2NjY3KSI+PHJlY3QgaGVpZ2h0PSI2IiB3aWR0aD0iNiIvPjwvZz4mI3hhOzxnIHRyYW5zZm9ybT0idHJhbnNsYXRlKDYyMCwxMjQpIHNjYWxlKDUuMzIxNjY2NjY2NjY2NykiPjxyZWN0IGhlaWdodD0iNiIgd2lkdGg9IjYiLz48L2c+JiN4YTs8ZyB0cmFuc2Zvcm09InRyYW5zbGF0ZSg2NTEsMTI0KSBzY2FsZSg1LjMyMTY2NjY2NjY2NjcpIj48cmVjdCBoZWlnaHQ9IjYiIHdpZHRoPSI2Ii8+PC9nPiYjeGE7PGcgdHJhbnNmb3JtPSJ0cmFuc2xhdGUoNjgyLDEyNCkgc2NhbGUoNS4zMjE2NjY2NjY2NjY3KSI+PHJlY3QgaGVpZ2h0PSI2IiB3aWR0aD0iNiIvPjwvZz4mI3hhOzxnIHRyYW5zZm9ybT0idHJhbnNsYXRlKDM3MiwxNTUpIHNjYWxlKDUuMzIxNjY2NjY2NjY2NykiPjxyZWN0IGhlaWdodD0iNiIgd2lkdGg9IjYiLz48L2c+JiN4YTs8ZyB0cmFuc2Zvcm09InRyYW5zbGF0ZSg0MDMsMTU1KSBzY2FsZSg1LjMyMTY2NjY2NjY2NjcpIj48cmVjdCBoZWlnaHQ9IjYiIHdpZHRoPSI2Ii8+PC9nPiYjeGE7PGcgdHJhbnNmb3JtPSJ0cmFuc2xhdGUoNDY1LDE1NSkgc2NhbGUoNS4zMjE2NjY2NjY2NjY3KSI+PHJlY3QgaGVpZ2h0PSI2IiB3aWR0aD0iNiIvPjwvZz4mI3hhOzxnIHRyYW5zZm9ybT0idHJhbnNsYXRlKDUyNywxNTUpIHNjYWxlKDUuMzIxNjY2NjY2NjY2NykiPjxyZWN0IGhlaWdodD0iNiIgd2lkdGg9IjYiLz48L2c+JiN4YTs8ZyB0cmFuc2Zvcm09InRyYW5zbGF0ZSg1NTgsMTU1KSBzY2FsZSg1LjMyMTY2NjY2NjY2NjcpIj48cmVjdCBoZWlnaHQ9IjYiIHdpZHRoPSI2Ii8+PC9nPiYjeGE7PGcgdHJhbnNmb3JtPSJ0cmFuc2xhdGUoNTg5LDE1NSkgc2NhbGUoNS4zMjE2NjY2NjY2NjY3KSI+PHJlY3QgaGVpZ2h0PSI2IiB3aWR0aD0iNiIvPjwvZz4mI3hhOzxnIHRyYW5zZm9ybT0idHJhbnNsYXRlKDM3MiwxODYpIHNjYWxlKDUuMzIxNjY2NjY2NjY2NykiPjxyZWN0IGhlaWdodD0iNiIgd2lkdGg9IjYiLz48L2c+JiN4YTs8ZyB0cmFuc2Zvcm09InRyYW5zbGF0ZSg0MDMsMTg2KSBzY2FsZSg1LjMyMTY2NjY2NjY2NjcpIj48cmVjdCBoZWlnaHQ9IjYiIHdpZHRoPSI2Ii8+PC9nPiYjeGE7PGcgdHJhbnNmb3JtPSJ0cmFuc2xhdGUoNDY1LDE4Nikgc2NhbGUoNS4zMjE2NjY2NjY2NjY3KSI+PHJlY3QgaGVpZ2h0PSI2IiB3aWR0aD0iNiIvPjwvZz4mI3hhOzxnIHRyYW5zZm9ybT0idHJhbnNsYXRlKDQ5NiwxODYpIHNjYWxlKDUuMzIxNjY2NjY2NjY2NykiPjxyZWN0IGhlaWdodD0iNiIgd2lkdGg9IjYiLz48L2c+JiN4YTs8ZyB0cmFuc2Zvcm09InRyYW5zbGF0ZSg1ODksMTg2KSBzY2FsZSg1LjMyMTY2NjY2NjY2NjcpIj48cmVjdCBoZWlnaHQ9IjYiIHdpZHRoPSI2Ii8+PC9nPiYjeGE7PGcgdHJhbnNmb3JtPSJ0cmFuc2xhdGUoNjIwLDE4Nikgc2NhbGUoNS4zMjE2NjY2NjY2NjY3KSI+PHJlY3QgaGVpZ2h0PSI2IiB3aWR0aD0iNiIvPjwvZz4mI3hhOzxnIHRyYW5zZm9ybT0idHJhbnNsYXRlKDY1MSwxODYpIHNjYWxlKDUuMzIxNjY2NjY2NjY2NykiPjxyZWN0IGhlaWdodD0iNiIgd2lkdGg9IjYiLz48L2c+JiN4YTs8ZyB0cmFuc2Zvcm09InRyYW5zbGF0ZSgzMTAsMjE3KSBzY2FsZSg1LjMyMTY2NjY2NjY2NjcpIj48cmVjdCBoZWlnaHQ9IjYiIHdpZHRoPSI2Ii8+PC9nPiYjeGE7PGcgdHJhbnNmb3JtPSJ0cmFuc2xhdGUoMzQxLDIxNykgc2NhbGUoNS4zMjE2NjY2NjY2NjY3KSI+PHJlY3QgaGVpZ2h0PSI2IiB3aWR0aD0iNiIvPjwvZz4mI3hhOzxnIHRyYW5zZm9ybT0idHJhbnNsYXRlKDQ2NSwyMTcpIHNjYWxlKDUuMzIxNjY2NjY2NjY2NykiPjxyZWN0IGhlaWdodD0iNiIgd2lkdGg9IjYiLz48L2c+JiN4YTs8ZyB0cmFuc2Zvcm09InRyYW5zbGF0ZSg1NTgsMjE3KSBzY2FsZSg1LjMyMTY2NjY2NjY2NjcpIj48cmVjdCBoZWlnaHQ9IjYiIHdpZHRoPSI2Ii8+PC9nPiYjeGE7PGcgdHJhbnNmb3JtPSJ0cmFuc2xhdGUoNTg5LDIxNykgc2NhbGUoNS4zMjE2NjY2NjY2NjY3KSI+PHJlY3QgaGVpZ2h0PSI2IiB3aWR0aD0iNiIvPjwvZz4mI3hhOzxnIHRyYW5zZm9ybT0idHJhbnNsYXRlKDMxMCwyNDgpIHNjYWxlKDUuMzIxNjY2NjY2NjY2NykiPjxyZWN0IGhlaWdodD0iNiIgd2lkdGg9IjYiLz48L2c+JiN4YTs8ZyB0cmFuc2Zvcm09InRyYW5zbGF0ZSgzNzIsMjQ4KSBzY2FsZSg1LjMyMTY2NjY2NjY2NjcpIj48cmVjdCBoZWlnaHQ9IjYiIHdpZHRoPSI2Ii8+PC9nPiYjeGE7PGcgdHJhbnNmb3JtPSJ0cmFuc2xhdGUoNDM0LDI0OCkgc2NhbGUoNS4zMjE2NjY2NjY2NjY3KSI+PHJlY3QgaGVpZ2h0PSI2IiB3aWR0aD0iNiIvPjwvZz4mI3hhOzxnIHRyYW5zZm9ybT0idHJhbnNsYXRlKDQ5NiwyNDgpIHNjYWxlKDUuMzIxNjY2NjY2NjY2NykiPjxyZWN0IGhlaWdodD0iNiIgd2lkdGg9IjYiLz48L2c+JiN4YTs8ZyB0cmFuc2Zvcm09InRyYW5zbGF0ZSg1NTgsMjQ4KSBzY2FsZSg1LjMyMTY2NjY2NjY2NjcpIj48cmVjdCBoZWlnaHQ9IjYiIHdpZHRoPSI2Ii8+PC9nPiYjeGE7PGcgdHJhbnNmb3JtPSJ0cmFuc2xhdGUoNjIwLDI0OCkgc2NhbGUoNS4zMjE2NjY2NjY2NjY3KSI+PHJlY3QgaGVpZ2h0PSI2IiB3aWR0aD0iNiIvPjwvZz4mI3hhOzxnIHRyYW5zZm9ybT0idHJhbnNsYXRlKDY4MiwyNDgpIHNjYWxlKDUuMzIxNjY2NjY2NjY2NykiPjxyZWN0IGhlaWdodD0iNiIgd2lkdGg9IjYiLz48L2c+JiN4YTs8ZyB0cmFuc2Zvcm09InRyYW5zbGF0ZSgzMTAsMjc5KSBzY2FsZSg1LjMyMTY2NjY2NjY2NjcpIj48cmVjdCBoZWlnaHQ9IjYiIHdpZHRoPSI2Ii8+PC9nPiYjeGE7PGcgdHJhbnNmb3JtPSJ0cmFuc2xhdGUoMzQxLDI3OSkgc2NhbGUoNS4zMjE2NjY2NjY2NjY3KSI+PHJlY3QgaGVpZ2h0PSI2IiB3aWR0aD0iNiIvPjwvZz4mI3hhOzxnIHRyYW5zZm9ybT0idHJhbnNsYXRlKDQ2NSwyNzkpIHNjYWxlKDUuMzIxNjY2NjY2NjY2NykiPjxyZWN0IGhlaWdodD0iNiIgd2lkdGg9IjYiLz48L2c+JiN4YTs8ZyB0cmFuc2Zvcm09InRyYW5zbGF0ZSg1NTgsMjc5KSBzY2FsZSg1LjMyMTY2NjY2NjY2NjcpIj48cmVjdCBoZWlnaHQ9IjYiIHdpZHRoPSI2Ii8+PC9nPiYjeGE7PGcgdHJhbnNmb3JtPSJ0cmFuc2xhdGUoNTg5LDI3OSkgc2NhbGUoNS4zMjE2NjY2NjY2NjY3KSI+PHJlY3QgaGVpZ2h0PSI2IiB3aWR0aD0iNiIvPjwvZz4mI3hhOzxnIHRyYW5zZm9ybT0idHJhbnNsYXRlKDYyMCwyNzkpIHNjYWxlKDUuMzIxNjY2NjY2NjY2NykiPjxyZWN0IGhlaWdodD0iNiIgd2lkdGg9IjYiLz48L2c+JiN4YTs8ZyB0cmFuc2Zvcm09InRyYW5zbGF0ZSg2NTEsMjc5KSBzY2FsZSg1LjMyMTY2NjY2NjY2NjcpIj48cmVjdCBoZWlnaHQ9IjYiIHdpZHRoPSI2Ii8+PC9nPiYjeGE7PGcgdHJhbnNmb3JtPSJ0cmFuc2xhdGUoMTI0LDMxMCkgc2NhbGUoNS4zMjE2NjY2NjY2NjY3KSI+PHJlY3QgaGVpZ2h0PSI2IiB3aWR0aD0iNiIvPjwvZz4mI3hhOzxnIHRyYW5zZm9ybT0idHJhbnNsYXRlKDE1NSwzMTApIHNjYWxlKDUuMzIxNjY2NjY2NjY2NykiPjxyZWN0IGhlaWdodD0iNiIgd2lkdGg9IjYiLz48L2c+JiN4YTs8ZyB0cmFuc2Zvcm09InRyYW5zbGF0ZSgxODYsMzEwKSBzY2FsZSg1LjMyMTY2NjY2NjY2NjcpIj48cmVjdCBoZWlnaHQ9IjYiIHdpZHRoPSI2Ii8+PC9nPiYjeGE7PGcgdHJhbnNmb3JtPSJ0cmFuc2xhdGUoMjQ4LDMxMCkgc2NhbGUoNS4zMjE2NjY2NjY2NjY3KSI+PHJlY3QgaGVpZ2h0PSI2IiB3aWR0aD0iNiIvPjwvZz4mI3hhOzxnIHRyYW5zZm9ybT0idHJhbnNsYXRlKDMxMCwzMTApIHNjYWxlKDUuMzIxNjY2NjY2NjY2NykiPjxyZWN0IGhlaWdodD0iNiIgd2lkdGg9IjYiLz48L2c+JiN4YTs8ZyB0cmFuc2Zvcm09InRyYW5zbGF0ZSgzNzIsMzEwKSBzY2FsZSg1LjMyMTY2NjY2NjY2NjcpIj48cmVjdCBoZWlnaHQ9IjYiIHdpZHRoPSI2Ii8+PC9nPiYjeGE7PGcgdHJhbnNmb3JtPSJ0cmFuc2xhdGUoNDAzLDMxMCkgc2NhbGUoNS4zMjE2NjY2NjY2NjY3KSI+PHJlY3QgaGVpZ2h0PSI2IiB3aWR0aD0iNiIvPjwvZz4mI3hhOzxnIHRyYW5zZm9ybT0idHJhbnNsYXRlKDQzNCwzMTApIHNjYWxlKDUuMzIxNjY2NjY2NjY2NykiPjxyZWN0IGhlaWdodD0iNiIgd2lkdGg9IjYiLz48L2c+JiN4YTs8ZyB0cmFuc2Zvcm09InRyYW5zbGF0ZSg0NjUsMzEwKSBzY2FsZSg1LjMyMTY2NjY2NjY2NjcpIj48cmVjdCBoZWlnaHQ9IjYiIHdpZHRoPSI2Ii8+PC9nPiYjeGE7PGcgdHJhbnNmb3JtPSJ0cmFuc2xhdGUoNDk2LDMxMCkgc2NhbGUoNS4zMjE2NjY2NjY2NjY3KSI+PHJlY3QgaGVpZ2h0PSI2IiB3aWR0aD0iNiIvPjwvZz4mI3hhOzxnIHRyYW5zZm9ybT0idHJhbnNsYXRlKDY4MiwzMTApIHNjYWxlKDUuMzIxNjY2NjY2NjY2NykiPjxyZWN0IGhlaWdodD0iNiIgd2lkdGg9IjYiLz48L2c+JiN4YTs8ZyB0cmFuc2Zvcm09InRyYW5zbGF0ZSg3MTMsMzEwKSBzY2FsZSg1LjMyMTY2NjY2NjY2NjcpIj48cmVjdCBoZWlnaHQ9IjYiIHdpZHRoPSI2Ii8+PC9nPiYjeGE7PGcgdHJhbnNmb3JtPSJ0cmFuc2xhdGUoNzQ0LDMxMCkgc2NhbGUoNS4zMjE2NjY2NjY2NjY3KSI+PHJlY3QgaGVpZ2h0PSI2IiB3aWR0aD0iNiIvPjwvZz4mI3hhOzxnIHRyYW5zZm9ybT0idHJhbnNsYXRlKDc3NSwzMTApIHNjYWxlKDUuMzIxNjY2NjY2NjY2NykiPjxyZWN0IGhlaWdodD0iNiIgd2lkdGg9IjYiLz48L2c+JiN4YTs8ZyB0cmFuc2Zvcm09InRyYW5zbGF0ZSg4NjgsMzEwKSBzY2FsZSg1LjMyMTY2NjY2NjY2NjcpIj48cmVjdCBoZWlnaHQ9IjYiIHdpZHRoPSI2Ii8+PC9nPiYjeGE7PGcgdHJhbnNmb3JtPSJ0cmFuc2xhdGUoODk5LDMxMCkgc2NhbGUoNS4zMjE2NjY2NjY2NjY3KSI+PHJlY3QgaGVpZ2h0PSI2IiB3aWR0aD0iNiIvPjwvZz4mI3hhOzxnIHRyYW5zZm9ybT0idHJhbnNsYXRlKDkzMCwzMTApIHNjYWxlKDUuMzIxNjY2NjY2NjY2NykiPjxyZWN0IGhlaWdodD0iNiIgd2lkdGg9IjYiLz48L2c+JiN4YTs8ZyB0cmFuc2Zvcm09InRyYW5zbGF0ZSg2MiwzNDEpIHNjYWxlKDUuMzIxNjY2NjY2NjY2NykiPjxyZWN0IGhlaWdodD0iNiIgd2lkdGg9IjYiLz48L2c+JiN4YTs8ZyB0cmFuc2Zvcm09InRyYW5zbGF0ZSgxMjQsMzQxKSBzY2FsZSg1LjMyMTY2NjY2NjY2NjcpIj48cmVjdCBoZWlnaHQ9IjYiIHdpZHRoPSI2Ii8+PC9nPiYjeGE7PGcgdHJhbnNmb3JtPSJ0cmFuc2xhdGUoMTU1LDM0MSkgc2NhbGUoNS4zMjE2NjY2NjY2NjY3KSI+PHJlY3QgaGVpZ2h0PSI2IiB3aWR0aD0iNiIvPjwvZz4mI3hhOzxnIHRyYW5zZm9ybT0idHJhbnNsYXRlKDIxNywzNDEpIHNjYWxlKDUuMzIxNjY2NjY2NjY2NykiPjxyZWN0IGhlaWdodD0iNiIgd2lkdGg9IjYiLz48L2c+JiN4YTs8ZyB0cmFuc2Zvcm09InRyYW5zbGF0ZSgyNzksMzQxKSBzY2FsZSg1LjMyMTY2NjY2NjY2NjcpIj48cmVjdCBoZWlnaHQ9IjYiIHdpZHRoPSI2Ii8+PC9nPiYjeGE7PGcgdHJhbnNmb3JtPSJ0cmFuc2xhdGUoMzEwLDM0MSkgc2NhbGUoNS4zMjE2NjY2NjY2NjY3KSI+PHJlY3QgaGVpZ2h0PSI2IiB3aWR0aD0iNiIvPjwvZz4mI3hhOzxnIHRyYW5zZm9ybT0idHJhbnNsYXRlKDQwMywzNDEpIHNjYWxlKDUuMzIxNjY2NjY2NjY2NykiPjxyZWN0IGhlaWdodD0iNiIgd2lkdGg9IjYiLz48L2c+JiN4YTs8ZyB0cmFuc2Zvcm09InRyYW5zbGF0ZSg0MzQsMzQxKSBzY2FsZSg1LjMyMTY2NjY2NjY2NjcpIj48cmVjdCBoZWlnaHQ9IjYiIHdpZHRoPSI2Ii8+PC9nPiYjeGE7PGcgdHJhbnNmb3JtPSJ0cmFuc2xhdGUoNTU4LDM0MSkgc2NhbGUoNS4zMjE2NjY2NjY2NjY3KSI+PHJlY3QgaGVpZ2h0PSI2IiB3aWR0aD0iNiIvPjwvZz4mI3hhOzxnIHRyYW5zZm9ybT0idHJhbnNsYXRlKDYyMCwzNDEpIHNjYWxlKDUuMzIxNjY2NjY2NjY2NykiPjxyZWN0IGhlaWdodD0iNiIgd2lkdGg9IjYiLz48L2c+JiN4YTs8ZyB0cmFuc2Zvcm09InRyYW5zbGF0ZSg2NTEsMzQxKSBzY2FsZSg1LjMyMTY2NjY2NjY2NjcpIj48cmVjdCBoZWlnaHQ9IjYiIHdpZHRoPSI2Ii8+PC9nPiYjeGE7PGcgdHJhbnNmb3JtPSJ0cmFuc2xhdGUoNzEzLDM0MSkgc2NhbGUoNS4zMjE2NjY2NjY2NjY3KSI+PHJlY3QgaGVpZ2h0PSI2IiB3aWR0aD0iNiIvPjwvZz4mI3hhOzxnIHRyYW5zZm9ybT0idHJhbnNsYXRlKDc0NCwzNDEpIHNjYWxlKDUuMzIxNjY2NjY2NjY2NykiPjxyZWN0IGhlaWdodD0iNiIgd2lkdGg9IjYiLz48L2c+JiN4YTs8ZyB0cmFuc2Zvcm09InRyYW5zbGF0ZSg3NzUsMzQxKSBzY2FsZSg1LjMyMTY2NjY2NjY2NjcpIj48cmVjdCBoZWlnaHQ9IjYiIHdpZHRoPSI2Ii8+PC9nPiYjeGE7PGcgdHJhbnNmb3JtPSJ0cmFuc2xhdGUoODA2LDM0MSkgc2NhbGUoNS4zMjE2NjY2NjY2NjY3KSI+PHJlY3QgaGVpZ2h0PSI2IiB3aWR0aD0iNiIvPjwvZz4mI3hhOzxnIHRyYW5zZm9ybT0idHJhbnNsYXRlKDgzNywzNDEpIHNjYWxlKDUuMzIxNjY2NjY2NjY2NykiPjxyZWN0IGhlaWdodD0iNiIgd2lkdGg9IjYiLz48L2c+JiN4YTs8ZyB0cmFuc2Zvcm09InRyYW5zbGF0ZSg5MzAsMzQxKSBzY2FsZSg1LjMyMTY2NjY2NjY2NjcpIj48cmVjdCBoZWlnaHQ9IjYiIHdpZHRoPSI2Ii8+PC9nPiYjeGE7PGcgdHJhbnNmb3JtPSJ0cmFuc2xhdGUoNjIsMzcyKSBzY2FsZSg1LjMyMTY2NjY2NjY2NjcpIj48cmVjdCBoZWlnaHQ9IjYiIHdpZHRoPSI2Ii8+PC9nPiYjeGE7PGcgdHJhbnNmb3JtPSJ0cmFuc2xhdGUoOTMsMzcyKSBzY2FsZSg1LjMyMTY2NjY2NjY2NjcpIj48cmVjdCBoZWlnaHQ9IjYiIHdpZHRoPSI2Ii8+PC9nPiYjeGE7PGcgdHJhbnNmb3JtPSJ0cmFuc2xhdGUoMjE3LDM3Mikgc2NhbGUoNS4zMjE2NjY2NjY2NjY3KSI+PHJlY3QgaGVpZ2h0PSI2IiB3aWR0aD0iNiIvPjwvZz4mI3hhOzxnIHRyYW5zZm9ybT0idHJhbnNsYXRlKDI0OCwzNzIpIHNjYWxlKDUuMzIxNjY2NjY2NjY2NykiPjxyZWN0IGhlaWdodD0iNiIgd2lkdGg9IjYiLz48L2c+JiN4YTs8ZyB0cmFuc2Zvcm09InRyYW5zbGF0ZSgyNzksMzcyKSBzY2FsZSg1LjMyMTY2NjY2NjY2NjcpIj48cmVjdCBoZWlnaHQ9IjYiIHdpZHRoPSI2Ii8+PC9nPiYjeGE7PGcgdHJhbnNmb3JtPSJ0cmFuc2xhdGUoMzEwLDM3Mikgc2NhbGUoNS4zMjE2NjY2NjY2NjY3KSI+PHJlY3QgaGVpZ2h0PSI2IiB3aWR0aD0iNiIvPjwvZz4mI3hhOzxnIHRyYW5zZm9ybT0idHJhbnNsYXRlKDM0MSwzNzIpIHNjYWxlKDUuMzIxNjY2NjY2NjY2NykiPjxyZWN0IGhlaWdodD0iNiIgd2lkdGg9IjYiLz48L2c+JiN4YTs8ZyB0cmFuc2Zvcm09InRyYW5zbGF0ZSgzNzIsMzcyKSBzY2FsZSg1LjMyMTY2NjY2NjY2NjcpIj48cmVjdCBoZWlnaHQ9IjYiIHdpZHRoPSI2Ii8+PC9nPiYjeGE7PGcgdHJhbnNmb3JtPSJ0cmFuc2xhdGUoNDAzLDM3Mikgc2NhbGUoNS4zMjE2NjY2NjY2NjY3KSI+PHJlY3QgaGVpZ2h0PSI2IiB3aWR0aD0iNiIvPjwvZz4mI3hhOzxnIHRyYW5zZm9ybT0idHJhbnNsYXRlKDQzNCwzNzIpIHNjYWxlKDUuMzIxNjY2NjY2NjY2NykiPjxyZWN0IGhlaWdodD0iNiIgd2lkdGg9IjYiLz48L2c+JiN4YTs8ZyB0cmFuc2Zvcm09InRyYW5zbGF0ZSg1ODksMzcyKSBzY2FsZSg1LjMyMTY2NjY2NjY2NjcpIj48cmVjdCBoZWlnaHQ9IjYiIHdpZHRoPSI2Ii8+PC9nPiYjeGE7PGcgdHJhbnNmb3JtPSJ0cmFuc2xhdGUoNjIwLDM3Mikgc2NhbGUoNS4zMjE2NjY2NjY2NjY3KSI+PHJlY3QgaGVpZ2h0PSI2IiB3aWR0aD0iNiIvPjwvZz4mI3hhOzxnIHRyYW5zZm9ybT0idHJhbnNsYXRlKDY4MiwzNzIpIHNjYWxlKDUuMzIxNjY2NjY2NjY2NykiPjxyZWN0IGhlaWdodD0iNiIgd2lkdGg9IjYiLz48L2c+JiN4YTs8ZyB0cmFuc2Zvcm09InRyYW5zbGF0ZSg3MTMsMzcyKSBzY2FsZSg1LjMyMTY2NjY2NjY2NjcpIj48cmVjdCBoZWlnaHQ9IjYiIHdpZHRoPSI2Ii8+PC9nPiYjeGE7PGcgdHJhbnNmb3JtPSJ0cmFuc2xhdGUoNzQ0LDM3Mikgc2NhbGUoNS4zMjE2NjY2NjY2NjY3KSI+PHJlY3QgaGVpZ2h0PSI2IiB3aWR0aD0iNiIvPjwvZz4mI3hhOzxnIHRyYW5zZm9ybT0idHJhbnNsYXRlKDgwNiwzNzIpIHNjYWxlKDUuMzIxNjY2NjY2NjY2NykiPjxyZWN0IGhlaWdodD0iNiIgd2lkdGg9IjYiLz48L2c+JiN4YTs8ZyB0cmFuc2Zvcm09InRyYW5zbGF0ZSgxODYsNDAzKSBzY2FsZSg1LjMyMTY2NjY2NjY2NjcpIj48cmVjdCBoZWlnaHQ9IjYiIHdpZHRoPSI2Ii8+PC9nPiYjeGE7PGcgdHJhbnNmb3JtPSJ0cmFuc2xhdGUoMjc5LDQwMykgc2NhbGUoNS4zMjE2NjY2NjY2NjY3KSI+PHJlY3QgaGVpZ2h0PSI2IiB3aWR0aD0iNiIvPjwvZz4mI3hhOzxnIHRyYW5zZm9ybT0idHJhbnNsYXRlKDMxMCw0MDMpIHNjYWxlKDUuMzIxNjY2NjY2NjY2NykiPjxyZWN0IGhlaWdodD0iNiIgd2lkdGg9IjYiLz48L2c+JiN4YTs8ZyB0cmFuc2Zvcm09InRyYW5zbGF0ZSgzNDEsNDAzKSBzY2FsZSg1LjMyMTY2NjY2NjY2NjcpIj48cmVjdCBoZWlnaHQ9IjYiIHdpZHRoPSI2Ii8+PC9nPiYjeGE7PGcgdHJhbnNmb3JtPSJ0cmFuc2xhdGUoMzcyLDQwMykgc2NhbGUoNS4zMjE2NjY2NjY2NjY3KSI+PHJlY3QgaGVpZ2h0PSI2IiB3aWR0aD0iNiIvPjwvZz4mI3hhOzxnIHRyYW5zZm9ybT0idHJhbnNsYXRlKDQ2NSw0MDMpIHNjYWxlKDUuMzIxNjY2NjY2NjY2NykiPjxyZWN0IGhlaWdodD0iNiIgd2lkdGg9IjYiLz48L2c+JiN4YTs8ZyB0cmFuc2Zvcm09InRyYW5zbGF0ZSg1NTgsNDAzKSBzY2FsZSg1LjMyMTY2NjY2NjY2NjcpIj48cmVjdCBoZWlnaHQ9IjYiIHdpZHRoPSI2Ii8+PC9nPiYjeGE7PGcgdHJhbnNmb3JtPSJ0cmFuc2xhdGUoNTg5LDQwMykgc2NhbGUoNS4zMjE2NjY2NjY2NjY3KSI+PHJlY3QgaGVpZ2h0PSI2IiB3aWR0aD0iNiIvPjwvZz4mI3hhOzxnIHRyYW5zZm9ybT0idHJhbnNsYXRlKDYyMCw0MDMpIHNjYWxlKDUuMzIxNjY2NjY2NjY2NykiPjxyZWN0IGhlaWdodD0iNiIgd2lkdGg9IjYiLz48L2c+JiN4YTs8ZyB0cmFuc2Zvcm09InRyYW5zbGF0ZSg3MTMsNDAzKSBzY2FsZSg1LjMyMTY2NjY2NjY2NjcpIj48cmVjdCBoZWlnaHQ9IjYiIHdpZHRoPSI2Ii8+PC9nPiYjeGE7PGcgdHJhbnNmb3JtPSJ0cmFuc2xhdGUoNzQ0LDQwMykgc2NhbGUoNS4zMjE2NjY2NjY2NjY3KSI+PHJlY3QgaGVpZ2h0PSI2IiB3aWR0aD0iNiIvPjwvZz4mI3hhOzxnIHRyYW5zZm9ybT0idHJhbnNsYXRlKDgzNyw0MDMpIHNjYWxlKDUuMzIxNjY2NjY2NjY2NykiPjxyZWN0IGhlaWdodD0iNiIgd2lkdGg9IjYiLz48L2c+JiN4YTs8ZyB0cmFuc2Zvcm09InRyYW5zbGF0ZSg4OTksNDAzKSBzY2FsZSg1LjMyMTY2NjY2NjY2NjcpIj48cmVjdCBoZWlnaHQ9IjYiIHdpZHRoPSI2Ii8+PC9nPiYjeGE7PGcgdHJhbnNmb3JtPSJ0cmFuc2xhdGUoOTMsNDM0KSBzY2FsZSg1LjMyMTY2NjY2NjY2NjcpIj48cmVjdCBoZWlnaHQ9IjYiIHdpZHRoPSI2Ii8+PC9nPiYjeGE7PGcgdHJhbnNmb3JtPSJ0cmFuc2xhdGUoMTU1LDQzNCkgc2NhbGUoNS4zMjE2NjY2NjY2NjY3KSI+PHJlY3QgaGVpZ2h0PSI2IiB3aWR0aD0iNiIvPjwvZz4mI3hhOzxnIHRyYW5zZm9ybT0idHJhbnNsYXRlKDE4Niw0MzQpIHNjYWxlKDUuMzIxNjY2NjY2NjY2NykiPjxyZWN0IGhlaWdodD0iNiIgd2lkdGg9IjYiLz48L2c+JiN4YTs8ZyB0cmFuc2Zvcm09InRyYW5zbGF0ZSgyMTcsNDM0KSBzY2FsZSg1LjMyMTY2NjY2NjY2NjcpIj48cmVjdCBoZWlnaHQ9IjYiIHdpZHRoPSI2Ii8+PC9nPiYjeGE7PGcgdHJhbnNmb3JtPSJ0cmFuc2xhdGUoMjQ4LDQzNCkgc2NhbGUoNS4zMjE2NjY2NjY2NjY3KSI+PHJlY3QgaGVpZ2h0PSI2IiB3aWR0aD0iNiIvPjwvZz4mI3hhOzxnIHRyYW5zZm9ybT0idHJhbnNsYXRlKDI3OSw0MzQpIHNjYWxlKDUuMzIxNjY2NjY2NjY2NykiPjxyZWN0IGhlaWdodD0iNiIgd2lkdGg9IjYiLz48L2c+JiN4YTs8ZyB0cmFuc2Zvcm09InRyYW5zbGF0ZSg0MDMsNDM0KSBzY2FsZSg1LjMyMTY2NjY2NjY2NjcpIj48cmVjdCBoZWlnaHQ9IjYiIHdpZHRoPSI2Ii8+PC9nPiYjeGE7PGcgdHJhbnNmb3JtPSJ0cmFuc2xhdGUoNDk2LDQzNCkgc2NhbGUoNS4zMjE2NjY2NjY2NjY3KSI+PHJlY3QgaGVpZ2h0PSI2IiB3aWR0aD0iNiIvPjwvZz4mI3hhOzxnIHRyYW5zZm9ybT0idHJhbnNsYXRlKDUyNyw0MzQpIHNjYWxlKDUuMzIxNjY2NjY2NjY2NykiPjxyZWN0IGhlaWdodD0iNiIgd2lkdGg9IjYiLz48L2c+JiN4YTs8ZyB0cmFuc2Zvcm09InRyYW5zbGF0ZSg2MjAsNDM0KSBzY2FsZSg1LjMyMTY2NjY2NjY2NjcpIj48cmVjdCBoZWlnaHQ9IjYiIHdpZHRoPSI2Ii8+PC9nPiYjeGE7PGcgdHJhbnNmb3JtPSJ0cmFuc2xhdGUoNjUxLDQzNCkgc2NhbGUoNS4zMjE2NjY2NjY2NjY3KSI+PHJlY3QgaGVpZ2h0PSI2IiB3aWR0aD0iNiIvPjwvZz4mI3hhOzxnIHRyYW5zZm9ybT0idHJhbnNsYXRlKDY4Miw0MzQpIHNjYWxlKDUuMzIxNjY2NjY2NjY2NykiPjxyZWN0IGhlaWdodD0iNiIgd2lkdGg9IjYiLz48L2c+JiN4YTs8ZyB0cmFuc2Zvcm09InRyYW5zbGF0ZSg3MTMsNDM0KSBzY2FsZSg1LjMyMTY2NjY2NjY2NjcpIj48cmVjdCBoZWlnaHQ9IjYiIHdpZHRoPSI2Ii8+PC9nPiYjeGE7PGcgdHJhbnNmb3JtPSJ0cmFuc2xhdGUoNzc1LDQzNCkgc2NhbGUoNS4zMjE2NjY2NjY2NjY3KSI+PHJlY3QgaGVpZ2h0PSI2IiB3aWR0aD0iNiIvPjwvZz4mI3hhOzxnIHRyYW5zZm9ybT0idHJhbnNsYXRlKDg2OCw0MzQpIHNjYWxlKDUuMzIxNjY2NjY2NjY2NykiPjxyZWN0IGhlaWdodD0iNiIgd2lkdGg9IjYiLz48L2c+JiN4YTs8ZyB0cmFuc2Zvcm09InRyYW5zbGF0ZSg4OTksNDM0KSBzY2FsZSg1LjMyMTY2NjY2NjY2NjcpIj48cmVjdCBoZWlnaHQ9IjYiIHdpZHRoPSI2Ii8+PC9nPiYjeGE7PGcgdHJhbnNmb3JtPSJ0cmFuc2xhdGUoOTMwLDQzNCkgc2NhbGUoNS4zMjE2NjY2NjY2NjY3KSI+PHJlY3QgaGVpZ2h0PSI2IiB3aWR0aD0iNiIvPjwvZz4mI3hhOzxnIHRyYW5zZm9ybT0idHJhbnNsYXRlKDYyLDQ2NSkgc2NhbGUoNS4zMjE2NjY2NjY2NjY3KSI+PHJlY3QgaGVpZ2h0PSI2IiB3aWR0aD0iNiIvPjwvZz4mI3hhOzxnIHRyYW5zZm9ybT0idHJhbnNsYXRlKDkzLDQ2NSkgc2NhbGUoNS4zMjE2NjY2NjY2NjY3KSI+PHJlY3QgaGVpZ2h0PSI2IiB3aWR0aD0iNiIvPjwvZz4mI3hhOzxnIHRyYW5zZm9ybT0idHJhbnNsYXRlKDEyNCw0NjUpIHNjYWxlKDUuMzIxNjY2NjY2NjY2NykiPjxyZWN0IGhlaWdodD0iNiIgd2lkdGg9IjYiLz48L2c+JiN4YTs8ZyB0cmFuc2Zvcm09InRyYW5zbGF0ZSgxNTUsNDY1KSBzY2FsZSg1LjMyMTY2NjY2NjY2NjcpIj48cmVjdCBoZWlnaHQ9IjYiIHdpZHRoPSI2Ii8+PC9nPiYjeGE7PGcgdHJhbnNmb3JtPSJ0cmFuc2xhdGUoMTg2LDQ2NSkgc2NhbGUoNS4zMjE2NjY2NjY2NjY3KSI+PHJlY3QgaGVpZ2h0PSI2IiB3aWR0aD0iNiIvPjwvZz4mI3hhOzxnIHRyYW5zZm9ybT0idHJhbnNsYXRlKDIxNyw0NjUpIHNjYWxlKDUuMzIxNjY2NjY2NjY2NykiPjxyZWN0IGhlaWdodD0iNiIgd2lkdGg9IjYiLz48L2c+JiN4YTs8ZyB0cmFuc2Zvcm09InRyYW5zbGF0ZSgyNzksNDY1KSBzY2FsZSg1LjMyMTY2NjY2NjY2NjcpIj48cmVjdCBoZWlnaHQ9IjYiIHdpZHRoPSI2Ii8+PC9nPiYjeGE7PGcgdHJhbnNmb3JtPSJ0cmFuc2xhdGUoMzcyLDQ2NSkgc2NhbGUoNS4zMjE2NjY2NjY2NjY3KSI+PHJlY3QgaGVpZ2h0PSI2IiB3aWR0aD0iNiIvPjwvZz4mI3hhOzxnIHRyYW5zZm9ybT0idHJhbnNsYXRlKDQ5Niw0NjUpIHNjYWxlKDUuMzIxNjY2NjY2NjY2NykiPjxyZWN0IGhlaWdodD0iNiIgd2lkdGg9IjYiLz48L2c+JiN4YTs8ZyB0cmFuc2Zvcm09InRyYW5zbGF0ZSg1MjcsNDY1KSBzY2FsZSg1LjMyMTY2NjY2NjY2NjcpIj48cmVjdCBoZWlnaHQ9IjYiIHdpZHRoPSI2Ii8+PC9nPiYjeGE7PGcgdHJhbnNmb3JtPSJ0cmFuc2xhdGUoNTg5LDQ2NSkgc2NhbGUoNS4zMjE2NjY2NjY2NjY3KSI+PHJlY3QgaGVpZ2h0PSI2IiB3aWR0aD0iNiIvPjwvZz4mI3hhOzxnIHRyYW5zZm9ybT0idHJhbnNsYXRlKDYyMCw0NjUpIHNjYWxlKDUuMzIxNjY2NjY2NjY2NykiPjxyZWN0IGhlaWdodD0iNiIgd2lkdGg9IjYiLz48L2c+JiN4YTs8ZyB0cmFuc2Zvcm09InRyYW5zbGF0ZSg2NTEsNDY1KSBzY2FsZSg1LjMyMTY2NjY2NjY2NjcpIj48cmVjdCBoZWlnaHQ9IjYiIHdpZHRoPSI2Ii8+PC9nPiYjeGE7PGcgdHJhbnNmb3JtPSJ0cmFuc2xhdGUoNjgyLDQ2NSkgc2NhbGUoNS4zMjE2NjY2NjY2NjY3KSI+PHJlY3QgaGVpZ2h0PSI2IiB3aWR0aD0iNiIvPjwvZz4mI3hhOzxnIHRyYW5zZm9ybT0idHJhbnNsYXRlKDcxMyw0NjUpIHNjYWxlKDUuMzIxNjY2NjY2NjY2NykiPjxyZWN0IGhlaWdodD0iNiIgd2lkdGg9IjYiLz48L2c+JiN4YTs8ZyB0cmFuc2Zvcm09InRyYW5zbGF0ZSg3NDQsNDY1KSBzY2FsZSg1LjMyMTY2NjY2NjY2NjcpIj48cmVjdCBoZWlnaHQ9IjYiIHdpZHRoPSI2Ii8+PC9nPiYjeGE7PGcgdHJhbnNmb3JtPSJ0cmFuc2xhdGUoODA2LDQ2NSkgc2NhbGUoNS4zMjE2NjY2NjY2NjY3KSI+PHJlY3QgaGVpZ2h0PSI2IiB3aWR0aD0iNiIvPjwvZz4mI3hhOzxnIHRyYW5zZm9ybT0idHJhbnNsYXRlKDgzNyw0NjUpIHNjYWxlKDUuMzIxNjY2NjY2NjY2NykiPjxyZWN0IGhlaWdodD0iNiIgd2lkdGg9IjYiLz48L2c+JiN4YTs8ZyB0cmFuc2Zvcm09InRyYW5zbGF0ZSg4OTksNDY1KSBzY2FsZSg1LjMyMTY2NjY2NjY2NjcpIj48cmVjdCBoZWlnaHQ9IjYiIHdpZHRoPSI2Ii8+PC9nPiYjeGE7PGcgdHJhbnNmb3JtPSJ0cmFuc2xhdGUoOTMwLDQ2NSkgc2NhbGUoNS4zMjE2NjY2NjY2NjY3KSI+PHJlY3QgaGVpZ2h0PSI2IiB3aWR0aD0iNiIvPjwvZz4mI3hhOzxnIHRyYW5zZm9ybT0idHJhbnNsYXRlKDYyLDQ5Nikgc2NhbGUoNS4zMjE2NjY2NjY2NjY3KSI+PHJlY3QgaGVpZ2h0PSI2IiB3aWR0aD0iNiIvPjwvZz4mI3hhOzxnIHRyYW5zZm9ybT0idHJhbnNsYXRlKDE4Niw0OTYpIHNjYWxlKDUuMzIxNjY2NjY2NjY2NykiPjxyZWN0IGhlaWdodD0iNiIgd2lkdGg9IjYiLz48L2c+JiN4YTs8ZyB0cmFuc2Zvcm09InRyYW5zbGF0ZSgyMTcsNDk2KSBzY2FsZSg1LjMyMTY2NjY2NjY2NjcpIj48cmVjdCBoZWlnaHQ9IjYiIHdpZHRoPSI2Ii8+PC9nPiYjeGE7PGcgdHJhbnNmb3JtPSJ0cmFuc2xhdGUoMjQ4LDQ5Nikgc2NhbGUoNS4zMjE2NjY2NjY2NjY3KSI+PHJlY3QgaGVpZ2h0PSI2IiB3aWR0aD0iNiIvPjwvZz4mI3hhOzxnIHRyYW5zZm9ybT0idHJhbnNsYXRlKDI3OSw0OTYpIHNjYWxlKDUuMzIxNjY2NjY2NjY2NykiPjxyZWN0IGhlaWdodD0iNiIgd2lkdGg9IjYiLz48L2c+JiN4YTs8ZyB0cmFuc2Zvcm09InRyYW5zbGF0ZSgzNzIsNDk2KSBzY2FsZSg1LjMyMTY2NjY2NjY2NjcpIj48cmVjdCBoZWlnaHQ9IjYiIHdpZHRoPSI2Ii8+PC9nPiYjeGE7PGcgdHJhbnNmb3JtPSJ0cmFuc2xhdGUoNDAzLDQ5Nikgc2NhbGUoNS4zMjE2NjY2NjY2NjY3KSI+PHJlY3QgaGVpZ2h0PSI2IiB3aWR0aD0iNiIvPjwvZz4mI3hhOzxnIHRyYW5zZm9ybT0idHJhbnNsYXRlKDQzNCw0OTYpIHNjYWxlKDUuMzIxNjY2NjY2NjY2NykiPjxyZWN0IGhlaWdodD0iNiIgd2lkdGg9IjYiLz48L2c+JiN4YTs8ZyB0cmFuc2Zvcm09InRyYW5zbGF0ZSg0NjUsNDk2KSBzY2FsZSg1LjMyMTY2NjY2NjY2NjcpIj48cmVjdCBoZWlnaHQ9IjYiIHdpZHRoPSI2Ii8+PC9nPiYjeGE7PGcgdHJhbnNmb3JtPSJ0cmFuc2xhdGUoNDk2LDQ5Nikgc2NhbGUoNS4zMjE2NjY2NjY2NjY3KSI+PHJlY3QgaGVpZ2h0PSI2IiB3aWR0aD0iNiIvPjwvZz4mI3hhOzxnIHRyYW5zZm9ybT0idHJhbnNsYXRlKDU1OCw0OTYpIHNjYWxlKDUuMzIxNjY2NjY2NjY2NykiPjxyZWN0IGhlaWdodD0iNiIgd2lkdGg9IjYiLz48L2c+JiN4YTs8ZyB0cmFuc2Zvcm09InRyYW5zbGF0ZSg2MjAsNDk2KSBzY2FsZSg1LjMyMTY2NjY2NjY2NjcpIj48cmVjdCBoZWlnaHQ9IjYiIHdpZHRoPSI2Ii8+PC9nPiYjeGE7PGcgdHJhbnNmb3JtPSJ0cmFuc2xhdGUoNjgyLDQ5Nikgc2NhbGUoNS4zMjE2NjY2NjY2NjY3KSI+PHJlY3QgaGVpZ2h0PSI2IiB3aWR0aD0iNiIvPjwvZz4mI3hhOzxnIHRyYW5zZm9ybT0idHJhbnNsYXRlKDcxMyw0OTYpIHNjYWxlKDUuMzIxNjY2NjY2NjY2NykiPjxyZWN0IGhlaWdodD0iNiIgd2lkdGg9IjYiLz48L2c+JiN4YTs8ZyB0cmFuc2Zvcm09InRyYW5zbGF0ZSg3NzUsNDk2KSBzY2FsZSg1LjMyMTY2NjY2NjY2NjcpIj48cmVjdCBoZWlnaHQ9IjYiIHdpZHRoPSI2Ii8+PC9nPiYjeGE7PGcgdHJhbnNmb3JtPSJ0cmFuc2xhdGUoOTMsNTI3KSBzY2FsZSg1LjMyMTY2NjY2NjY2NjcpIj48cmVjdCBoZWlnaHQ9IjYiIHdpZHRoPSI2Ii8+PC9nPiYjeGE7PGcgdHJhbnNmb3JtPSJ0cmFuc2xhdGUoMTI0LDUyNykgc2NhbGUoNS4zMjE2NjY2NjY2NjY3KSI+PHJlY3QgaGVpZ2h0PSI2IiB3aWR0aD0iNiIvPjwvZz4mI3hhOzxnIHRyYW5zZm9ybT0idHJhbnNsYXRlKDIxNyw1MjcpIHNjYWxlKDUuMzIxNjY2NjY2NjY2NykiPjxyZWN0IGhlaWdodD0iNiIgd2lkdGg9IjYiLz48L2c+JiN4YTs8ZyB0cmFuc2Zvcm09InRyYW5zbGF0ZSgzMTAsNTI3KSBzY2FsZSg1LjMyMTY2NjY2NjY2NjcpIj48cmVjdCBoZWlnaHQ9IjYiIHdpZHRoPSI2Ii8+PC9nPiYjeGE7PGcgdHJhbnNmb3JtPSJ0cmFuc2xhdGUoMzcyLDUyNykgc2NhbGUoNS4zMjE2NjY2NjY2NjY3KSI+PHJlY3QgaGVpZ2h0PSI2IiB3aWR0aD0iNiIvPjwvZz4mI3hhOzxnIHRyYW5zZm9ybT0idHJhbnNsYXRlKDQ2NSw1MjcpIHNjYWxlKDUuMzIxNjY2NjY2NjY2NykiPjxyZWN0IGhlaWdodD0iNiIgd2lkdGg9IjYiLz48L2c+JiN4YTs8ZyB0cmFuc2Zvcm09InRyYW5zbGF0ZSg1MjcsNTI3KSBzY2FsZSg1LjMyMTY2NjY2NjY2NjcpIj48cmVjdCBoZWlnaHQ9IjYiIHdpZHRoPSI2Ii8+PC9nPiYjeGE7PGcgdHJhbnNmb3JtPSJ0cmFuc2xhdGUoNTU4LDUyNykgc2NhbGUoNS4zMjE2NjY2NjY2NjY3KSI+PHJlY3QgaGVpZ2h0PSI2IiB3aWR0aD0iNiIvPjwvZz4mI3hhOzxnIHRyYW5zZm9ybT0idHJhbnNsYXRlKDU4OSw1MjcpIHNjYWxlKDUuMzIxNjY2NjY2NjY2NykiPjxyZWN0IGhlaWdodD0iNiIgd2lkdGg9IjYiLz48L2c+JiN4YTs8ZyB0cmFuc2Zvcm09InRyYW5zbGF0ZSg2MjAsNTI3KSBzY2FsZSg1LjMyMTY2NjY2NjY2NjcpIj48cmVjdCBoZWlnaHQ9IjYiIHdpZHRoPSI2Ii8+PC9nPiYjeGE7PGcgdHJhbnNmb3JtPSJ0cmFuc2xhdGUoNzQ0LDUyNykgc2NhbGUoNS4zMjE2NjY2NjY2NjY3KSI+PHJlY3QgaGVpZ2h0PSI2IiB3aWR0aD0iNiIvPjwvZz4mI3hhOzxnIHRyYW5zZm9ybT0idHJhbnNsYXRlKDgwNiw1MjcpIHNjYWxlKDUuMzIxNjY2NjY2NjY2NykiPjxyZWN0IGhlaWdodD0iNiIgd2lkdGg9IjYiLz48L2c+JiN4YTs8ZyB0cmFuc2Zvcm09InRyYW5zbGF0ZSg4MzcsNTI3KSBzY2FsZSg1LjMyMTY2NjY2NjY2NjcpIj48cmVjdCBoZWlnaHQ9IjYiIHdpZHRoPSI2Ii8+PC9nPiYjeGE7PGcgdHJhbnNmb3JtPSJ0cmFuc2xhdGUoOTMwLDUyNykgc2NhbGUoNS4zMjE2NjY2NjY2NjY3KSI+PHJlY3QgaGVpZ2h0PSI2IiB3aWR0aD0iNiIvPjwvZz4mI3hhOzxnIHRyYW5zZm9ybT0idHJhbnNsYXRlKDkzLDU1OCkgc2NhbGUoNS4zMjE2NjY2NjY2NjY3KSI+PHJlY3QgaGVpZ2h0PSI2IiB3aWR0aD0iNiIvPjwvZz4mI3hhOzxnIHRyYW5zZm9ybT0idHJhbnNsYXRlKDE4Niw1NTgpIHNjYWxlKDUuMzIxNjY2NjY2NjY2NykiPjxyZWN0IGhlaWdodD0iNiIgd2lkdGg9IjYiLz48L2c+JiN4YTs8ZyB0cmFuc2Zvcm09InRyYW5zbGF0ZSgyMTcsNTU4KSBzY2FsZSg1LjMyMTY2NjY2NjY2NjcpIj48cmVjdCBoZWlnaHQ9IjYiIHdpZHRoPSI2Ii8+PC9nPiYjeGE7PGcgdHJhbnNmb3JtPSJ0cmFuc2xhdGUoMjQ4LDU1OCkgc2NhbGUoNS4zMjE2NjY2NjY2NjY3KSI+PHJlY3QgaGVpZ2h0PSI2IiB3aWR0aD0iNiIvPjwvZz4mI3hhOzxnIHRyYW5zZm9ybT0idHJhbnNsYXRlKDMxMCw1NTgpIHNjYWxlKDUuMzIxNjY2NjY2NjY2NykiPjxyZWN0IGhlaWdodD0iNiIgd2lkdGg9IjYiLz48L2c+JiN4YTs8ZyB0cmFuc2Zvcm09InRyYW5zbGF0ZSgzNzIsNTU4KSBzY2FsZSg1LjMyMTY2NjY2NjY2NjcpIj48cmVjdCBoZWlnaHQ9IjYiIHdpZHRoPSI2Ii8+PC9nPiYjeGE7PGcgdHJhbnNmb3JtPSJ0cmFuc2xhdGUoNDM0LDU1OCkgc2NhbGUoNS4zMjE2NjY2NjY2NjY3KSI+PHJlY3QgaGVpZ2h0PSI2IiB3aWR0aD0iNiIvPjwvZz4mI3hhOzxnIHRyYW5zZm9ybT0idHJhbnNsYXRlKDY4Miw1NTgpIHNjYWxlKDUuMzIxNjY2NjY2NjY2NykiPjxyZWN0IGhlaWdodD0iNiIgd2lkdGg9IjYiLz48L2c+JiN4YTs8ZyB0cmFuc2Zvcm09InRyYW5zbGF0ZSg4MzcsNTU4KSBzY2FsZSg1LjMyMTY2NjY2NjY2NjcpIj48cmVjdCBoZWlnaHQ9IjYiIHdpZHRoPSI2Ii8+PC9nPiYjeGE7PGcgdHJhbnNmb3JtPSJ0cmFuc2xhdGUoODY4LDU1OCkgc2NhbGUoNS4zMjE2NjY2NjY2NjY3KSI+PHJlY3QgaGVpZ2h0PSI2IiB3aWR0aD0iNiIvPjwvZz4mI3hhOzxnIHRyYW5zZm9ybT0idHJhbnNsYXRlKDkzMCw1NTgpIHNjYWxlKDUuMzIxNjY2NjY2NjY2NykiPjxyZWN0IGhlaWdodD0iNiIgd2lkdGg9IjYiLz48L2c+JiN4YTs8ZyB0cmFuc2Zvcm09InRyYW5zbGF0ZSg2Miw1ODkpIHNjYWxlKDUuMzIxNjY2NjY2NjY2NykiPjxyZWN0IGhlaWdodD0iNiIgd2lkdGg9IjYiLz48L2c+JiN4YTs8ZyB0cmFuc2Zvcm09InRyYW5zbGF0ZSgxMjQsNTg5KSBzY2FsZSg1LjMyMTY2NjY2NjY2NjcpIj48cmVjdCBoZWlnaHQ9IjYiIHdpZHRoPSI2Ii8+PC9nPiYjeGE7PGcgdHJhbnNmb3JtPSJ0cmFuc2xhdGUoMTg2LDU4OSkgc2NhbGUoNS4zMjE2NjY2NjY2NjY3KSI+PHJlY3QgaGVpZ2h0PSI2IiB3aWR0aD0iNiIvPjwvZz4mI3hhOzxnIHRyYW5zZm9ybT0idHJhbnNsYXRlKDIxNyw1ODkpIHNjYWxlKDUuMzIxNjY2NjY2NjY2NykiPjxyZWN0IGhlaWdodD0iNiIgd2lkdGg9IjYiLz48L2c+JiN4YTs8ZyB0cmFuc2Zvcm09InRyYW5zbGF0ZSgyNzksNTg5KSBzY2FsZSg1LjMyMTY2NjY2NjY2NjcpIj48cmVjdCBoZWlnaHQ9IjYiIHdpZHRoPSI2Ii8+PC9nPiYjeGE7PGcgdHJhbnNmb3JtPSJ0cmFuc2xhdGUoNDk2LDU4OSkgc2NhbGUoNS4zMjE2NjY2NjY2NjY3KSI+PHJlY3QgaGVpZ2h0PSI2IiB3aWR0aD0iNiIvPjwvZz4mI3hhOzxnIHRyYW5zZm9ybT0idHJhbnNsYXRlKDU4OSw1ODkpIHNjYWxlKDUuMzIxNjY2NjY2NjY2NykiPjxyZWN0IGhlaWdodD0iNiIgd2lkdGg9IjYiLz48L2c+JiN4YTs8ZyB0cmFuc2Zvcm09InRyYW5zbGF0ZSg2NTEsNTg5KSBzY2FsZSg1LjMyMTY2NjY2NjY2NjcpIj48cmVjdCBoZWlnaHQ9IjYiIHdpZHRoPSI2Ii8+PC9nPiYjeGE7PGcgdHJhbnNmb3JtPSJ0cmFuc2xhdGUoNjgyLDU4OSkgc2NhbGUoNS4zMjE2NjY2NjY2NjY3KSI+PHJlY3QgaGVpZ2h0PSI2IiB3aWR0aD0iNiIvPjwvZz4mI3hhOzxnIHRyYW5zZm9ybT0idHJhbnNsYXRlKDcxMyw1ODkpIHNjYWxlKDUuMzIxNjY2NjY2NjY2NykiPjxyZWN0IGhlaWdodD0iNiIgd2lkdGg9IjYiLz48L2c+JiN4YTs8ZyB0cmFuc2Zvcm09InRyYW5zbGF0ZSg3NzUsNTg5KSBzY2FsZSg1LjMyMTY2NjY2NjY2NjcpIj48cmVjdCBoZWlnaHQ9IjYiIHdpZHRoPSI2Ii8+PC9nPiYjeGE7PGcgdHJhbnNmb3JtPSJ0cmFuc2xhdGUoODA2LDU4OSkgc2NhbGUoNS4zMjE2NjY2NjY2NjY3KSI+PHJlY3QgaGVpZ2h0PSI2IiB3aWR0aD0iNiIvPjwvZz4mI3hhOzxnIHRyYW5zZm9ybT0idHJhbnNsYXRlKDgzNyw1ODkpIHNjYWxlKDUuMzIxNjY2NjY2NjY2NykiPjxyZWN0IGhlaWdodD0iNiIgd2lkdGg9IjYiLz48L2c+JiN4YTs8ZyB0cmFuc2Zvcm09InRyYW5zbGF0ZSg4OTksNTg5KSBzY2FsZSg1LjMyMTY2NjY2NjY2NjcpIj48cmVjdCBoZWlnaHQ9IjYiIHdpZHRoPSI2Ii8+PC9nPiYjeGE7PGcgdHJhbnNmb3JtPSJ0cmFuc2xhdGUoOTMwLDU4OSkgc2NhbGUoNS4zMjE2NjY2NjY2NjY3KSI+PHJlY3QgaGVpZ2h0PSI2IiB3aWR0aD0iNiIvPjwvZz4mI3hhOzxnIHRyYW5zZm9ybT0idHJhbnNsYXRlKDYyLDYyMCkgc2NhbGUoNS4zMjE2NjY2NjY2NjY3KSI+PHJlY3QgaGVpZ2h0PSI2IiB3aWR0aD0iNiIvPjwvZz4mI3hhOzxnIHRyYW5zZm9ybT0idHJhbnNsYXRlKDE1NSw2MjApIHNjYWxlKDUuMzIxNjY2NjY2NjY2NykiPjxyZWN0IGhlaWdodD0iNiIgd2lkdGg9IjYiLz48L2c+JiN4YTs8ZyB0cmFuc2Zvcm09InRyYW5zbGF0ZSgxODYsNjIwKSBzY2FsZSg1LjMyMTY2NjY2NjY2NjcpIj48cmVjdCBoZWlnaHQ9IjYiIHdpZHRoPSI2Ii8+PC9nPiYjeGE7PGcgdHJhbnNmb3JtPSJ0cmFuc2xhdGUoMjE3LDYyMCkgc2NhbGUoNS4zMjE2NjY2NjY2NjY3KSI+PHJlY3QgaGVpZ2h0PSI2IiB3aWR0aD0iNiIvPjwvZz4mI3hhOzxnIHRyYW5zZm9ybT0idHJhbnNsYXRlKDI0OCw2MjApIHNjYWxlKDUuMzIxNjY2NjY2NjY2NykiPjxyZWN0IGhlaWdodD0iNiIgd2lkdGg9IjYiLz48L2c+JiN4YTs8ZyB0cmFuc2Zvcm09InRyYW5zbGF0ZSgzNzIsNjIwKSBzY2FsZSg1LjMyMTY2NjY2NjY2NjcpIj48cmVjdCBoZWlnaHQ9IjYiIHdpZHRoPSI2Ii8+PC9nPiYjeGE7PGcgdHJhbnNmb3JtPSJ0cmFuc2xhdGUoNDM0LDYyMCkgc2NhbGUoNS4zMjE2NjY2NjY2NjY3KSI+PHJlY3QgaGVpZ2h0PSI2IiB3aWR0aD0iNiIvPjwvZz4mI3hhOzxnIHRyYW5zZm9ybT0idHJhbnNsYXRlKDUyNyw2MjApIHNjYWxlKDUuMzIxNjY2NjY2NjY2NykiPjxyZWN0IGhlaWdodD0iNiIgd2lkdGg9IjYiLz48L2c+JiN4YTs8ZyB0cmFuc2Zvcm09InRyYW5zbGF0ZSg1ODksNjIwKSBzY2FsZSg1LjMyMTY2NjY2NjY2NjcpIj48cmVjdCBoZWlnaHQ9IjYiIHdpZHRoPSI2Ii8+PC9nPiYjeGE7PGcgdHJhbnNmb3JtPSJ0cmFuc2xhdGUoNjgyLDYyMCkgc2NhbGUoNS4zMjE2NjY2NjY2NjY3KSI+PHJlY3QgaGVpZ2h0PSI2IiB3aWR0aD0iNiIvPjwvZz4mI3hhOzxnIHRyYW5zZm9ybT0idHJhbnNsYXRlKDc0NCw2MjApIHNjYWxlKDUuMzIxNjY2NjY2NjY2NykiPjxyZWN0IGhlaWdodD0iNiIgd2lkdGg9IjYiLz48L2c+JiN4YTs8ZyB0cmFuc2Zvcm09InRyYW5zbGF0ZSg3NzUsNjIwKSBzY2FsZSg1LjMyMTY2NjY2NjY2NjcpIj48cmVjdCBoZWlnaHQ9IjYiIHdpZHRoPSI2Ii8+PC9nPiYjeGE7PGcgdHJhbnNmb3JtPSJ0cmFuc2xhdGUoODM3LDYyMCkgc2NhbGUoNS4zMjE2NjY2NjY2NjY3KSI+PHJlY3QgaGVpZ2h0PSI2IiB3aWR0aD0iNiIvPjwvZz4mI3hhOzxnIHRyYW5zZm9ybT0idHJhbnNsYXRlKDYyLDY1MSkgc2NhbGUoNS4zMjE2NjY2NjY2NjY3KSI+PHJlY3QgaGVpZ2h0PSI2IiB3aWR0aD0iNiIvPjwvZz4mI3hhOzxnIHRyYW5zZm9ybT0idHJhbnNsYXRlKDEyNCw2NTEpIHNjYWxlKDUuMzIxNjY2NjY2NjY2NykiPjxyZWN0IGhlaWdodD0iNiIgd2lkdGg9IjYiLz48L2c+JiN4YTs8ZyB0cmFuc2Zvcm09InRyYW5zbGF0ZSgxODYsNjUxKSBzY2FsZSg1LjMyMTY2NjY2NjY2NjcpIj48cmVjdCBoZWlnaHQ9IjYiIHdpZHRoPSI2Ii8+PC9nPiYjeGE7PGcgdHJhbnNmb3JtPSJ0cmFuc2xhdGUoMjE3LDY1MSkgc2NhbGUoNS4zMjE2NjY2NjY2NjY3KSI+PHJlY3QgaGVpZ2h0PSI2IiB3aWR0aD0iNiIvPjwvZz4mI3hhOzxnIHRyYW5zZm9ybT0idHJhbnNsYXRlKDI3OSw2NTEpIHNjYWxlKDUuMzIxNjY2NjY2NjY2NykiPjxyZWN0IGhlaWdodD0iNiIgd2lkdGg9IjYiLz48L2c+JiN4YTs8ZyB0cmFuc2Zvcm09InRyYW5zbGF0ZSgzMTAsNjUxKSBzY2FsZSg1LjMyMTY2NjY2NjY2NjcpIj48cmVjdCBoZWlnaHQ9IjYiIHdpZHRoPSI2Ii8+PC9nPiYjeGE7PGcgdHJhbnNmb3JtPSJ0cmFuc2xhdGUoMzQxLDY1MSkgc2NhbGUoNS4zMjE2NjY2NjY2NjY3KSI+PHJlY3QgaGVpZ2h0PSI2IiB3aWR0aD0iNiIvPjwvZz4mI3hhOzxnIHRyYW5zZm9ybT0idHJhbnNsYXRlKDQwMyw2NTEpIHNjYWxlKDUuMzIxNjY2NjY2NjY2NykiPjxyZWN0IGhlaWdodD0iNiIgd2lkdGg9IjYiLz48L2c+JiN4YTs8ZyB0cmFuc2Zvcm09InRyYW5zbGF0ZSg0MzQsNjUxKSBzY2FsZSg1LjMyMTY2NjY2NjY2NjcpIj48cmVjdCBoZWlnaHQ9IjYiIHdpZHRoPSI2Ii8+PC9nPiYjeGE7PGcgdHJhbnNmb3JtPSJ0cmFuc2xhdGUoNTI3LDY1MSkgc2NhbGUoNS4zMjE2NjY2NjY2NjY3KSI+PHJlY3QgaGVpZ2h0PSI2IiB3aWR0aD0iNiIvPjwvZz4mI3hhOzxnIHRyYW5zZm9ybT0idHJhbnNsYXRlKDU1OCw2NTEpIHNjYWxlKDUuMzIxNjY2NjY2NjY2NykiPjxyZWN0IGhlaWdodD0iNiIgd2lkdGg9IjYiLz48L2c+JiN4YTs8ZyB0cmFuc2Zvcm09InRyYW5zbGF0ZSg1ODksNjUxKSBzY2FsZSg1LjMyMTY2NjY2NjY2NjcpIj48cmVjdCBoZWlnaHQ9IjYiIHdpZHRoPSI2Ii8+PC9nPiYjeGE7PGcgdHJhbnNmb3JtPSJ0cmFuc2xhdGUoNjIwLDY1MSkgc2NhbGUoNS4zMjE2NjY2NjY2NjY3KSI+PHJlY3QgaGVpZ2h0PSI2IiB3aWR0aD0iNiIvPjwvZz4mI3hhOzxnIHRyYW5zZm9ybT0idHJhbnNsYXRlKDY1MSw2NTEpIHNjYWxlKDUuMzIxNjY2NjY2NjY2NykiPjxyZWN0IGhlaWdodD0iNiIgd2lkdGg9IjYiLz48L2c+JiN4YTs8ZyB0cmFuc2Zvcm09InRyYW5zbGF0ZSg3NDQsNjUxKSBzY2FsZSg1LjMyMTY2NjY2NjY2NjcpIj48cmVjdCBoZWlnaHQ9IjYiIHdpZHRoPSI2Ii8+PC9nPiYjeGE7PGcgdHJhbnNmb3JtPSJ0cmFuc2xhdGUoNzc1LDY1MSkgc2NhbGUoNS4zMjE2NjY2NjY2NjY3KSI+PHJlY3QgaGVpZ2h0PSI2IiB3aWR0aD0iNiIvPjwvZz4mI3hhOzxnIHRyYW5zZm9ybT0idHJhbnNsYXRlKDgzNyw2NTEpIHNjYWxlKDUuMzIxNjY2NjY2NjY2NykiPjxyZWN0IGhlaWdodD0iNiIgd2lkdGg9IjYiLz48L2c+JiN4YTs8ZyB0cmFuc2Zvcm09InRyYW5zbGF0ZSg5MzAsNjUxKSBzY2FsZSg1LjMyMTY2NjY2NjY2NjcpIj48cmVjdCBoZWlnaHQ9IjYiIHdpZHRoPSI2Ii8+PC9nPiYjeGE7PGcgdHJhbnNmb3JtPSJ0cmFuc2xhdGUoNjIsNjgyKSBzY2FsZSg1LjMyMTY2NjY2NjY2NjcpIj48cmVjdCBoZWlnaHQ9IjYiIHdpZHRoPSI2Ii8+PC9nPiYjeGE7PGcgdHJhbnNmb3JtPSJ0cmFuc2xhdGUoMTI0LDY4Mikgc2NhbGUoNS4zMjE2NjY2NjY2NjY3KSI+PHJlY3QgaGVpZ2h0PSI2IiB3aWR0aD0iNiIvPjwvZz4mI3hhOzxnIHRyYW5zZm9ybT0idHJhbnNsYXRlKDE1NSw2ODIpIHNjYWxlKDUuMzIxNjY2NjY2NjY2NykiPjxyZWN0IGhlaWdodD0iNiIgd2lkdGg9IjYiLz48L2c+JiN4YTs8ZyB0cmFuc2Zvcm09InRyYW5zbGF0ZSgxODYsNjgyKSBzY2FsZSg1LjMyMTY2NjY2NjY2NjcpIj48cmVjdCBoZWlnaHQ9IjYiIHdpZHRoPSI2Ii8+PC9nPiYjeGE7PGcgdHJhbnNmb3JtPSJ0cmFuc2xhdGUoMjE3LDY4Mikgc2NhbGUoNS4zMjE2NjY2NjY2NjY3KSI+PHJlY3QgaGVpZ2h0PSI2IiB3aWR0aD0iNiIvPjwvZz4mI3hhOzxnIHRyYW5zZm9ybT0idHJhbnNsYXRlKDI0OCw2ODIpIHNjYWxlKDUuMzIxNjY2NjY2NjY2NykiPjxyZWN0IGhlaWdodD0iNiIgd2lkdGg9IjYiLz48L2c+JiN4YTs8ZyB0cmFuc2Zvcm09InRyYW5zbGF0ZSgyNzksNjgyKSBzY2FsZSg1LjMyMTY2NjY2NjY2NjcpIj48cmVjdCBoZWlnaHQ9IjYiIHdpZHRoPSI2Ii8+PC9nPiYjeGE7PGcgdHJhbnNmb3JtPSJ0cmFuc2xhdGUoMzcyLDY4Mikgc2NhbGUoNS4zMjE2NjY2NjY2NjY3KSI+PHJlY3QgaGVpZ2h0PSI2IiB3aWR0aD0iNiIvPjwvZz4mI3hhOzxnIHRyYW5zZm9ybT0idHJhbnNsYXRlKDQzNCw2ODIpIHNjYWxlKDUuMzIxNjY2NjY2NjY2NykiPjxyZWN0IGhlaWdodD0iNiIgd2lkdGg9IjYiLz48L2c+JiN4YTs8ZyB0cmFuc2Zvcm09InRyYW5zbGF0ZSg0NjUsNjgyKSBzY2FsZSg1LjMyMTY2NjY2NjY2NjcpIj48cmVjdCBoZWlnaHQ9IjYiIHdpZHRoPSI2Ii8+PC9nPiYjeGE7PGcgdHJhbnNmb3JtPSJ0cmFuc2xhdGUoNTg5LDY4Mikgc2NhbGUoNS4zMjE2NjY2NjY2NjY3KSI+PHJlY3QgaGVpZ2h0PSI2IiB3aWR0aD0iNiIvPjwvZz4mI3hhOzxnIHRyYW5zZm9ybT0idHJhbnNsYXRlKDY1MSw2ODIpIHNjYWxlKDUuMzIxNjY2NjY2NjY2NykiPjxyZWN0IGhlaWdodD0iNiIgd2lkdGg9IjYiLz48L2c+JiN4YTs8ZyB0cmFuc2Zvcm09InRyYW5zbGF0ZSg2ODIsNjgyKSBzY2FsZSg1LjMyMTY2NjY2NjY2NjcpIj48cmVjdCBoZWlnaHQ9IjYiIHdpZHRoPSI2Ii8+PC9nPiYjeGE7PGcgdHJhbnNmb3JtPSJ0cmFuc2xhdGUoNzEzLDY4Mikgc2NhbGUoNS4zMjE2NjY2NjY2NjY3KSI+PHJlY3QgaGVpZ2h0PSI2IiB3aWR0aD0iNiIvPjwvZz4mI3hhOzxnIHRyYW5zZm9ybT0idHJhbnNsYXRlKDc0NCw2ODIpIHNjYWxlKDUuMzIxNjY2NjY2NjY2NykiPjxyZWN0IGhlaWdodD0iNiIgd2lkdGg9IjYiLz48L2c+JiN4YTs8ZyB0cmFuc2Zvcm09InRyYW5zbGF0ZSg3NzUsNjgyKSBzY2FsZSg1LjMyMTY2NjY2NjY2NjcpIj48cmVjdCBoZWlnaHQ9IjYiIHdpZHRoPSI2Ii8+PC9nPiYjeGE7PGcgdHJhbnNmb3JtPSJ0cmFuc2xhdGUoODA2LDY4Mikgc2NhbGUoNS4zMjE2NjY2NjY2NjY3KSI+PHJlY3QgaGVpZ2h0PSI2IiB3aWR0aD0iNiIvPjwvZz4mI3hhOzxnIHRyYW5zZm9ybT0idHJhbnNsYXRlKDgzNyw2ODIpIHNjYWxlKDUuMzIxNjY2NjY2NjY2NykiPjxyZWN0IGhlaWdodD0iNiIgd2lkdGg9IjYiLz48L2c+JiN4YTs8ZyB0cmFuc2Zvcm09InRyYW5zbGF0ZSg4NjgsNjgyKSBzY2FsZSg1LjMyMTY2NjY2NjY2NjcpIj48cmVjdCBoZWlnaHQ9IjYiIHdpZHRoPSI2Ii8+PC9nPiYjeGE7PGcgdHJhbnNmb3JtPSJ0cmFuc2xhdGUoMzEwLDcxMykgc2NhbGUoNS4zMjE2NjY2NjY2NjY3KSI+PHJlY3QgaGVpZ2h0PSI2IiB3aWR0aD0iNiIvPjwvZz4mI3hhOzxnIHRyYW5zZm9ybT0idHJhbnNsYXRlKDQwMyw3MTMpIHNjYWxlKDUuMzIxNjY2NjY2NjY2NykiPjxyZWN0IGhlaWdodD0iNiIgd2lkdGg9IjYiLz48L2c+JiN4YTs8ZyB0cmFuc2Zvcm09InRyYW5zbGF0ZSg0NjUsNzEzKSBzY2FsZSg1LjMyMTY2NjY2NjY2NjcpIj48cmVjdCBoZWlnaHQ9IjYiIHdpZHRoPSI2Ii8+PC9nPiYjeGE7PGcgdHJhbnNmb3JtPSJ0cmFuc2xhdGUoNjIwLDcxMykgc2NhbGUoNS4zMjE2NjY2NjY2NjY3KSI+PHJlY3QgaGVpZ2h0PSI2IiB3aWR0aD0iNiIvPjwvZz4mI3hhOzxnIHRyYW5zZm9ybT0idHJhbnNsYXRlKDY1MSw3MTMpIHNjYWxlKDUuMzIxNjY2NjY2NjY2NykiPjxyZWN0IGhlaWdodD0iNiIgd2lkdGg9IjYiLz48L2c+JiN4YTs8ZyB0cmFuc2Zvcm09InRyYW5zbGF0ZSg2ODIsNzEzKSBzY2FsZSg1LjMyMTY2NjY2NjY2NjcpIj48cmVjdCBoZWlnaHQ9IjYiIHdpZHRoPSI2Ii8+PC9nPiYjeGE7PGcgdHJhbnNmb3JtPSJ0cmFuc2xhdGUoODA2LDcxMykgc2NhbGUoNS4zMjE2NjY2NjY2NjY3KSI+PHJlY3QgaGVpZ2h0PSI2IiB3aWR0aD0iNiIvPjwvZz4mI3hhOzxnIHRyYW5zZm9ybT0idHJhbnNsYXRlKDgzNyw3MTMpIHNjYWxlKDUuMzIxNjY2NjY2NjY2NykiPjxyZWN0IGhlaWdodD0iNiIgd2lkdGg9IjYiLz48L2c+JiN4YTs8ZyB0cmFuc2Zvcm09InRyYW5zbGF0ZSg4OTksNzEzKSBzY2FsZSg1LjMyMTY2NjY2NjY2NjcpIj48cmVjdCBoZWlnaHQ9IjYiIHdpZHRoPSI2Ii8+PC9nPiYjeGE7PGcgdHJhbnNmb3JtPSJ0cmFuc2xhdGUoOTMwLDcxMykgc2NhbGUoNS4zMjE2NjY2NjY2NjY3KSI+PHJlY3QgaGVpZ2h0PSI2IiB3aWR0aD0iNiIvPjwvZz4mI3hhOzxnIHRyYW5zZm9ybT0idHJhbnNsYXRlKDM0MSw3NDQpIHNjYWxlKDUuMzIxNjY2NjY2NjY2NykiPjxyZWN0IGhlaWdodD0iNiIgd2lkdGg9IjYiLz48L2c+JiN4YTs8ZyB0cmFuc2Zvcm09InRyYW5zbGF0ZSg0MzQsNzQ0KSBzY2FsZSg1LjMyMTY2NjY2NjY2NjcpIj48cmVjdCBoZWlnaHQ9IjYiIHdpZHRoPSI2Ii8+PC9nPiYjeGE7PGcgdHJhbnNmb3JtPSJ0cmFuc2xhdGUoNDk2LDc0NCkgc2NhbGUoNS4zMjE2NjY2NjY2NjY3KSI+PHJlY3QgaGVpZ2h0PSI2IiB3aWR0aD0iNiIvPjwvZz4mI3hhOzxnIHRyYW5zZm9ybT0idHJhbnNsYXRlKDUyNyw3NDQpIHNjYWxlKDUuMzIxNjY2NjY2NjY2NykiPjxyZWN0IGhlaWdodD0iNiIgd2lkdGg9IjYiLz48L2c+JiN4YTs8ZyB0cmFuc2Zvcm09InRyYW5zbGF0ZSg1ODksNzQ0KSBzY2FsZSg1LjMyMTY2NjY2NjY2NjcpIj48cmVjdCBoZWlnaHQ9IjYiIHdpZHRoPSI2Ii8+PC9nPiYjeGE7PGcgdHJhbnNmb3JtPSJ0cmFuc2xhdGUoNjUxLDc0NCkgc2NhbGUoNS4zMjE2NjY2NjY2NjY3KSI+PHJlY3QgaGVpZ2h0PSI2IiB3aWR0aD0iNiIvPjwvZz4mI3hhOzxnIHRyYW5zZm9ybT0idHJhbnNsYXRlKDY4Miw3NDQpIHNjYWxlKDUuMzIxNjY2NjY2NjY2NykiPjxyZWN0IGhlaWdodD0iNiIgd2lkdGg9IjYiLz48L2c+JiN4YTs8ZyB0cmFuc2Zvcm09InRyYW5zbGF0ZSg3NDQsNzQ0KSBzY2FsZSg1LjMyMTY2NjY2NjY2NjcpIj48cmVjdCBoZWlnaHQ9IjYiIHdpZHRoPSI2Ii8+PC9nPiYjeGE7PGcgdHJhbnNmb3JtPSJ0cmFuc2xhdGUoODA2LDc0NCkgc2NhbGUoNS4zMjE2NjY2NjY2NjY3KSI+PHJlY3QgaGVpZ2h0PSI2IiB3aWR0aD0iNiIvPjwvZz4mI3hhOzxnIHRyYW5zZm9ybT0idHJhbnNsYXRlKDM3Miw3NzUpIHNjYWxlKDUuMzIxNjY2NjY2NjY2NykiPjxyZWN0IGhlaWdodD0iNiIgd2lkdGg9IjYiLz48L2c+JiN4YTs8ZyB0cmFuc2Zvcm09InRyYW5zbGF0ZSg0MDMsNzc1KSBzY2FsZSg1LjMyMTY2NjY2NjY2NjcpIj48cmVjdCBoZWlnaHQ9IjYiIHdpZHRoPSI2Ii8+PC9nPiYjeGE7PGcgdHJhbnNmb3JtPSJ0cmFuc2xhdGUoNDY1LDc3NSkgc2NhbGUoNS4zMjE2NjY2NjY2NjY3KSI+PHJlY3QgaGVpZ2h0PSI2IiB3aWR0aD0iNiIvPjwvZz4mI3hhOzxnIHRyYW5zZm9ybT0idHJhbnNsYXRlKDU1OCw3NzUpIHNjYWxlKDUuMzIxNjY2NjY2NjY2NykiPjxyZWN0IGhlaWdodD0iNiIgd2lkdGg9IjYiLz48L2c+JiN4YTs8ZyB0cmFuc2Zvcm09InRyYW5zbGF0ZSg1ODksNzc1KSBzY2FsZSg1LjMyMTY2NjY2NjY2NjcpIj48cmVjdCBoZWlnaHQ9IjYiIHdpZHRoPSI2Ii8+PC9nPiYjeGE7PGcgdHJhbnNmb3JtPSJ0cmFuc2xhdGUoNjIwLDc3NSkgc2NhbGUoNS4zMjE2NjY2NjY2NjY3KSI+PHJlY3QgaGVpZ2h0PSI2IiB3aWR0aD0iNiIvPjwvZz4mI3hhOzxnIHRyYW5zZm9ybT0idHJhbnNsYXRlKDY1MSw3NzUpIHNjYWxlKDUuMzIxNjY2NjY2NjY2NykiPjxyZWN0IGhlaWdodD0iNiIgd2lkdGg9IjYiLz48L2c+JiN4YTs8ZyB0cmFuc2Zvcm09InRyYW5zbGF0ZSg2ODIsNzc1KSBzY2FsZSg1LjMyMTY2NjY2NjY2NjcpIj48cmVjdCBoZWlnaHQ9IjYiIHdpZHRoPSI2Ii8+PC9nPiYjeGE7PGcgdHJhbnNmb3JtPSJ0cmFuc2xhdGUoODA2LDc3NSkgc2NhbGUoNS4zMjE2NjY2NjY2NjY3KSI+PHJlY3QgaGVpZ2h0PSI2IiB3aWR0aD0iNiIvPjwvZz4mI3hhOzxnIHRyYW5zZm9ybT0idHJhbnNsYXRlKDgzNyw3NzUpIHNjYWxlKDUuMzIxNjY2NjY2NjY2NykiPjxyZWN0IGhlaWdodD0iNiIgd2lkdGg9IjYiLz48L2c+JiN4YTs8ZyB0cmFuc2Zvcm09InRyYW5zbGF0ZSg5MzAsNzc1KSBzY2FsZSg1LjMyMTY2NjY2NjY2NjcpIj48cmVjdCBoZWlnaHQ9IjYiIHdpZHRoPSI2Ii8+PC9nPiYjeGE7PGcgdHJhbnNmb3JtPSJ0cmFuc2xhdGUoMzEwLDgwNikgc2NhbGUoNS4zMjE2NjY2NjY2NjY3KSI+PHJlY3QgaGVpZ2h0PSI2IiB3aWR0aD0iNiIvPjwvZz4mI3hhOzxnIHRyYW5zZm9ybT0idHJhbnNsYXRlKDQzNCw4MDYpIHNjYWxlKDUuMzIxNjY2NjY2NjY2NykiPjxyZWN0IGhlaWdodD0iNiIgd2lkdGg9IjYiLz48L2c+JiN4YTs8ZyB0cmFuc2Zvcm09InRyYW5zbGF0ZSg0NjUsODA2KSBzY2FsZSg1LjMyMTY2NjY2NjY2NjcpIj48cmVjdCBoZWlnaHQ9IjYiIHdpZHRoPSI2Ii8+PC9nPiYjeGE7PGcgdHJhbnNmb3JtPSJ0cmFuc2xhdGUoNTU4LDgwNikgc2NhbGUoNS4zMjE2NjY2NjY2NjY3KSI+PHJlY3QgaGVpZ2h0PSI2IiB3aWR0aD0iNiIvPjwvZz4mI3hhOzxnIHRyYW5zZm9ybT0idHJhbnNsYXRlKDU4OSw4MDYpIHNjYWxlKDUuMzIxNjY2NjY2NjY2NykiPjxyZWN0IGhlaWdodD0iNiIgd2lkdGg9IjYiLz48L2c+JiN4YTs8ZyB0cmFuc2Zvcm09InRyYW5zbGF0ZSg2MjAsODA2KSBzY2FsZSg1LjMyMTY2NjY2NjY2NjcpIj48cmVjdCBoZWlnaHQ9IjYiIHdpZHRoPSI2Ii8+PC9nPiYjeGE7PGcgdHJhbnNmb3JtPSJ0cmFuc2xhdGUoNjgyLDgwNikgc2NhbGUoNS4zMjE2NjY2NjY2NjY3KSI+PHJlY3QgaGVpZ2h0PSI2IiB3aWR0aD0iNiIvPjwvZz4mI3hhOzxnIHRyYW5zZm9ybT0idHJhbnNsYXRlKDcxMyw4MDYpIHNjYWxlKDUuMzIxNjY2NjY2NjY2NykiPjxyZWN0IGhlaWdodD0iNiIgd2lkdGg9IjYiLz48L2c+JiN4YTs8ZyB0cmFuc2Zvcm09InRyYW5zbGF0ZSg3NDQsODA2KSBzY2FsZSg1LjMyMTY2NjY2NjY2NjcpIj48cmVjdCBoZWlnaHQ9IjYiIHdpZHRoPSI2Ii8+PC9nPiYjeGE7PGcgdHJhbnNmb3JtPSJ0cmFuc2xhdGUoNzc1LDgwNikgc2NhbGUoNS4zMjE2NjY2NjY2NjY3KSI+PHJlY3QgaGVpZ2h0PSI2IiB3aWR0aD0iNiIvPjwvZz4mI3hhOzxnIHRyYW5zZm9ybT0idHJhbnNsYXRlKDgwNiw4MDYpIHNjYWxlKDUuMzIxNjY2NjY2NjY2NykiPjxyZWN0IGhlaWdodD0iNiIgd2lkdGg9IjYiLz48L2c+JiN4YTs8ZyB0cmFuc2Zvcm09InRyYW5zbGF0ZSg4MzcsODA2KSBzY2FsZSg1LjMyMTY2NjY2NjY2NjcpIj48cmVjdCBoZWlnaHQ9IjYiIHdpZHRoPSI2Ii8+PC9nPiYjeGE7PGcgdHJhbnNmb3JtPSJ0cmFuc2xhdGUoODY4LDgwNikgc2NhbGUoNS4zMjE2NjY2NjY2NjY3KSI+PHJlY3QgaGVpZ2h0PSI2IiB3aWR0aD0iNiIvPjwvZz4mI3hhOzxnIHRyYW5zZm9ybT0idHJhbnNsYXRlKDg5OSw4MDYpIHNjYWxlKDUuMzIxNjY2NjY2NjY2NykiPjxyZWN0IGhlaWdodD0iNiIgd2lkdGg9IjYiLz48L2c+JiN4YTs8ZyB0cmFuc2Zvcm09InRyYW5zbGF0ZSgzMTAsODM3KSBzY2FsZSg1LjMyMTY2NjY2NjY2NjcpIj48cmVjdCBoZWlnaHQ9IjYiIHdpZHRoPSI2Ii8+PC9nPiYjeGE7PGcgdHJhbnNmb3JtPSJ0cmFuc2xhdGUoNDAzLDgzNykgc2NhbGUoNS4zMjE2NjY2NjY2NjY3KSI+PHJlY3QgaGVpZ2h0PSI2IiB3aWR0aD0iNiIvPjwvZz4mI3hhOzxnIHRyYW5zZm9ybT0idHJhbnNsYXRlKDQzNCw4MzcpIHNjYWxlKDUuMzIxNjY2NjY2NjY2NykiPjxyZWN0IGhlaWdodD0iNiIgd2lkdGg9IjYiLz48L2c+JiN4YTs8ZyB0cmFuc2Zvcm09InRyYW5zbGF0ZSg2NTEsODM3KSBzY2FsZSg1LjMyMTY2NjY2NjY2NjcpIj48cmVjdCBoZWlnaHQ9IjYiIHdpZHRoPSI2Ii8+PC9nPiYjeGE7PGcgdHJhbnNmb3JtPSJ0cmFuc2xhdGUoNjgyLDgzNykgc2NhbGUoNS4zMjE2NjY2NjY2NjY3KSI+PHJlY3QgaGVpZ2h0PSI2IiB3aWR0aD0iNiIvPjwvZz4mI3hhOzxnIHRyYW5zZm9ybT0idHJhbnNsYXRlKDcxMyw4MzcpIHNjYWxlKDUuMzIxNjY2NjY2NjY2NykiPjxyZWN0IGhlaWdodD0iNiIgd2lkdGg9IjYiLz48L2c+JiN4YTs8ZyB0cmFuc2Zvcm09InRyYW5zbGF0ZSg3NzUsODM3KSBzY2FsZSg1LjMyMTY2NjY2NjY2NjcpIj48cmVjdCBoZWlnaHQ9IjYiIHdpZHRoPSI2Ii8+PC9nPiYjeGE7PGcgdHJhbnNmb3JtPSJ0cmFuc2xhdGUoMzEwLDg2OCkgc2NhbGUoNS4zMjE2NjY2NjY2NjY3KSI+PHJlY3QgaGVpZ2h0PSI2IiB3aWR0aD0iNiIvPjwvZz4mI3hhOzxnIHRyYW5zZm9ybT0idHJhbnNsYXRlKDM0MSw4NjgpIHNjYWxlKDUuMzIxNjY2NjY2NjY2NykiPjxyZWN0IGhlaWdodD0iNiIgd2lkdGg9IjYiLz48L2c+JiN4YTs8ZyB0cmFuc2Zvcm09InRyYW5zbGF0ZSgzNzIsODY4KSBzY2FsZSg1LjMyMTY2NjY2NjY2NjcpIj48cmVjdCBoZWlnaHQ9IjYiIHdpZHRoPSI2Ii8+PC9nPiYjeGE7PGcgdHJhbnNmb3JtPSJ0cmFuc2xhdGUoNDAzLDg2OCkgc2NhbGUoNS4zMjE2NjY2NjY2NjY3KSI+PHJlY3QgaGVpZ2h0PSI2IiB3aWR0aD0iNiIvPjwvZz4mI3hhOzxnIHRyYW5zZm9ybT0idHJhbnNsYXRlKDQ2NSw4NjgpIHNjYWxlKDUuMzIxNjY2NjY2NjY2NykiPjxyZWN0IGhlaWdodD0iNiIgd2lkdGg9IjYiLz48L2c+JiN4YTs8ZyB0cmFuc2Zvcm09InRyYW5zbGF0ZSg2MjAsODY4KSBzY2FsZSg1LjMyMTY2NjY2NjY2NjcpIj48cmVjdCBoZWlnaHQ9IjYiIHdpZHRoPSI2Ii8+PC9nPiYjeGE7PGcgdHJhbnNmb3JtPSJ0cmFuc2xhdGUoNjUxLDg2OCkgc2NhbGUoNS4zMjE2NjY2NjY2NjY3KSI+PHJlY3QgaGVpZ2h0PSI2IiB3aWR0aD0iNiIvPjwvZz4mI3hhOzxnIHRyYW5zZm9ybT0idHJhbnNsYXRlKDY4Miw4NjgpIHNjYWxlKDUuMzIxNjY2NjY2NjY2NykiPjxyZWN0IGhlaWdodD0iNiIgd2lkdGg9IjYiLz48L2c+JiN4YTs8ZyB0cmFuc2Zvcm09InRyYW5zbGF0ZSg3MTMsODY4KSBzY2FsZSg1LjMyMTY2NjY2NjY2NjcpIj48cmVjdCBoZWlnaHQ9IjYiIHdpZHRoPSI2Ii8+PC9nPiYjeGE7PGcgdHJhbnNmb3JtPSJ0cmFuc2xhdGUoNzQ0LDg2OCkgc2NhbGUoNS4zMjE2NjY2NjY2NjY3KSI+PHJlY3QgaGVpZ2h0PSI2IiB3aWR0aD0iNiIvPjwvZz4mI3hhOzxnIHRyYW5zZm9ybT0idHJhbnNsYXRlKDc3NSw4NjgpIHNjYWxlKDUuMzIxNjY2NjY2NjY2NykiPjxyZWN0IGhlaWdodD0iNiIgd2lkdGg9IjYiLz48L2c+JiN4YTs8ZyB0cmFuc2Zvcm09InRyYW5zbGF0ZSg4MDYsODY4KSBzY2FsZSg1LjMyMTY2NjY2NjY2NjcpIj48cmVjdCBoZWlnaHQ9IjYiIHdpZHRoPSI2Ii8+PC9nPiYjeGE7PGcgdHJhbnNmb3JtPSJ0cmFuc2xhdGUoODM3LDg2OCkgc2NhbGUoNS4zMjE2NjY2NjY2NjY3KSI+PHJlY3QgaGVpZ2h0PSI2IiB3aWR0aD0iNiIvPjwvZz4mI3hhOzxnIHRyYW5zZm9ybT0idHJhbnNsYXRlKDg2OCw4NjgpIHNjYWxlKDUuMzIxNjY2NjY2NjY2NykiPjxyZWN0IGhlaWdodD0iNiIgd2lkdGg9IjYiLz48L2c+JiN4YTs8ZyB0cmFuc2Zvcm09InRyYW5zbGF0ZSg4OTksODY4KSBzY2FsZSg1LjMyMTY2NjY2NjY2NjcpIj48cmVjdCBoZWlnaHQ9IjYiIHdpZHRoPSI2Ii8+PC9nPiYjeGE7PGcgdHJhbnNmb3JtPSJ0cmFuc2xhdGUoMzcyLDg5OSkgc2NhbGUoNS4zMjE2NjY2NjY2NjY3KSI+PHJlY3QgaGVpZ2h0PSI2IiB3aWR0aD0iNiIvPjwvZz4mI3hhOzxnIHRyYW5zZm9ybT0idHJhbnNsYXRlKDQwMyw4OTkpIHNjYWxlKDUuMzIxNjY2NjY2NjY2NykiPjxyZWN0IGhlaWdodD0iNiIgd2lkdGg9IjYiLz48L2c+JiN4YTs8ZyB0cmFuc2Zvcm09InRyYW5zbGF0ZSg0MzQsODk5KSBzY2FsZSg1LjMyMTY2NjY2NjY2NjcpIj48cmVjdCBoZWlnaHQ9IjYiIHdpZHRoPSI2Ii8+PC9nPiYjeGE7PGcgdHJhbnNmb3JtPSJ0cmFuc2xhdGUoNDk2LDg5OSkgc2NhbGUoNS4zMjE2NjY2NjY2NjY3KSI+PHJlY3QgaGVpZ2h0PSI2IiB3aWR0aD0iNiIvPjwvZz4mI3hhOzxnIHRyYW5zZm9ybT0idHJhbnNsYXRlKDUyNyw4OTkpIHNjYWxlKDUuMzIxNjY2NjY2NjY2NykiPjxyZWN0IGhlaWdodD0iNiIgd2lkdGg9IjYiLz48L2c+JiN4YTs8ZyB0cmFuc2Zvcm09InRyYW5zbGF0ZSg1NTgsODk5KSBzY2FsZSg1LjMyMTY2NjY2NjY2NjcpIj48cmVjdCBoZWlnaHQ9IjYiIHdpZHRoPSI2Ii8+PC9nPiYjeGE7PGcgdHJhbnNmb3JtPSJ0cmFuc2xhdGUoNTg5LDg5OSkgc2NhbGUoNS4zMjE2NjY2NjY2NjY3KSI+PHJlY3QgaGVpZ2h0PSI2IiB3aWR0aD0iNiIvPjwvZz4mI3hhOzxnIHRyYW5zZm9ybT0idHJhbnNsYXRlKDYyMCw4OTkpIHNjYWxlKDUuMzIxNjY2NjY2NjY2NykiPjxyZWN0IGhlaWdodD0iNiIgd2lkdGg9IjYiLz48L2c+JiN4YTs8ZyB0cmFuc2Zvcm09InRyYW5zbGF0ZSg2ODIsODk5KSBzY2FsZSg1LjMyMTY2NjY2NjY2NjcpIj48cmVjdCBoZWlnaHQ9IjYiIHdpZHRoPSI2Ii8+PC9nPiYjeGE7PGcgdHJhbnNmb3JtPSJ0cmFuc2xhdGUoNzQ0LDg5OSkgc2NhbGUoNS4zMjE2NjY2NjY2NjY3KSI+PHJlY3QgaGVpZ2h0PSI2IiB3aWR0aD0iNiIvPjwvZz4mI3hhOzxnIHRyYW5zZm9ybT0idHJhbnNsYXRlKDgwNiw4OTkpIHNjYWxlKDUuMzIxNjY2NjY2NjY2NykiPjxyZWN0IGhlaWdodD0iNiIgd2lkdGg9IjYiLz48L2c+JiN4YTs8ZyB0cmFuc2Zvcm09InRyYW5zbGF0ZSg4OTksODk5KSBzY2FsZSg1LjMyMTY2NjY2NjY2NjcpIj48cmVjdCBoZWlnaHQ9IjYiIHdpZHRoPSI2Ii8+PC9nPiYjeGE7PGcgdHJhbnNmb3JtPSJ0cmFuc2xhdGUoMzQxLDkzMCkgc2NhbGUoNS4zMjE2NjY2NjY2NjY3KSI+PHJlY3QgaGVpZ2h0PSI2IiB3aWR0aD0iNiIvPjwvZz4mI3hhOzxnIHRyYW5zZm9ybT0idHJhbnNsYXRlKDM3Miw5MzApIHNjYWxlKDUuMzIxNjY2NjY2NjY2NykiPjxyZWN0IGhlaWdodD0iNiIgd2lkdGg9IjYiLz48L2c+JiN4YTs8ZyB0cmFuc2Zvcm09InRyYW5zbGF0ZSg0NjUsOTMwKSBzY2FsZSg1LjMyMTY2NjY2NjY2NjcpIj48cmVjdCBoZWlnaHQ9IjYiIHdpZHRoPSI2Ii8+PC9nPiYjeGE7PGcgdHJhbnNmb3JtPSJ0cmFuc2xhdGUoNDk2LDkzMCkgc2NhbGUoNS4zMjE2NjY2NjY2NjY3KSI+PHJlY3QgaGVpZ2h0PSI2IiB3aWR0aD0iNiIvPjwvZz4mI3hhOzxnIHRyYW5zZm9ybT0idHJhbnNsYXRlKDUyNyw5MzApIHNjYWxlKDUuMzIxNjY2NjY2NjY2NykiPjxyZWN0IGhlaWdodD0iNiIgd2lkdGg9IjYiLz48L2c+JiN4YTs8ZyB0cmFuc2Zvcm09InRyYW5zbGF0ZSg2MjAsOTMwKSBzY2FsZSg1LjMyMTY2NjY2NjY2NjcpIj48cmVjdCBoZWlnaHQ9IjYiIHdpZHRoPSI2Ii8+PC9nPiYjeGE7PGcgdHJhbnNmb3JtPSJ0cmFuc2xhdGUoNjUxLDkzMCkgc2NhbGUoNS4zMjE2NjY2NjY2NjY3KSI+PHJlY3QgaGVpZ2h0PSI2IiB3aWR0aD0iNiIvPjwvZz4mI3hhOzxnIHRyYW5zZm9ybT0idHJhbnNsYXRlKDc0NCw5MzApIHNjYWxlKDUuMzIxNjY2NjY2NjY2NykiPjxyZWN0IGhlaWdodD0iNiIgd2lkdGg9IjYiLz48L2c+JiN4YTs8ZyB0cmFuc2Zvcm09InRyYW5zbGF0ZSg4MDYsOTMwKSBzY2FsZSg1LjMyMTY2NjY2NjY2NjcpIj48cmVjdCBoZWlnaHQ9IjYiIHdpZHRoPSI2Ii8+PC9nPiYjeGE7PGcgdHJhbnNmb3JtPSJ0cmFuc2xhdGUoODY4LDkzMCkgc2NhbGUoNS4zMjE2NjY2NjY2NjY3KSI+PHJlY3QgaGVpZ2h0PSI2IiB3aWR0aD0iNiIvPjwvZz4mI3hhOzwvZz48L2c+PC9tYXNrPjwvZGVmcz4mI3hhOzxyZWN0IHk9IjAiIHg9IjAiIGZpbGw9IiNmZmZmZmYiIGhlaWdodD0iMTAyMyIgd2lkdGg9IjEwMjMiLz4mI3hhOzxyZWN0IGZpbGw9IiMwMDAwMDAiIG1hc2s9InVybCgjcXJtYXNrKSIgaGVpZ2h0PSIxMDIzIiB3aWR0aD0iMTAyMyIgeT0iMCIgeD0iMCIvPiYjeGE7PGc+PGcgZmlsbD0iIzAwMDAwMCIgdHJhbnNmb3JtPSJ0cmFuc2xhdGUoNjIsNjIpIj48ZyB0cmFuc2Zvcm09InNjYWxlKDE1LjUpIj48cGF0aCBkPSJNMCwwdjE0aDE0VjBIMHogTTEyLDEySDJWMmgxMFYxMnoiLz48L2c+PC9nPiYjeGE7PGcgZmlsbD0iIzAwMDAwMCIgdHJhbnNmb3JtPSJ0cmFuc2xhdGUoMTI0LDEyNCkiPjxnIHRyYW5zZm9ybT0ic2NhbGUoMTUuNSkiPjxyZWN0IGhlaWdodD0iNiIgd2lkdGg9IjYiLz48L2c+PC9nPiYjeGE7PGcgZmlsbD0iIzAwMDAwMCIgdHJhbnNmb3JtPSJ0cmFuc2xhdGUoNzQ0LDYyKSI+PGcgdHJhbnNmb3JtPSJzY2FsZSgxNS41KSI+PHBhdGggZD0iTTAsMHYxNGgxNFYwSDB6IE0xMiwxMkgyVjJoMTBWMTJ6Ii8+PC9nPjwvZz4mI3hhOzxnIGZpbGw9IiMwMDAwMDAiIHRyYW5zZm9ybT0idHJhbnNsYXRlKDgwNiwxMjQpIj48ZyB0cmFuc2Zvcm09InNjYWxlKDE1LjUpIj48cmVjdCBoZWlnaHQ9IjYiIHdpZHRoPSI2Ii8+PC9nPjwvZz4mI3hhOzxnIGZpbGw9IiMwMDAwMDAiIHRyYW5zZm9ybT0idHJhbnNsYXRlKDYyLDc0NCkiPjxnIHRyYW5zZm9ybT0ic2NhbGUoMTUuNSkiPjxwYXRoIGQ9Ik0wLDB2MTRoMTRWMEgweiBNMTIsMTJIMlYyaDEwVjEyeiIvPjwvZz48L2c+JiN4YTs8ZyBmaWxsPSIjMDAwMDAwIiB0cmFuc2Zvcm09InRyYW5zbGF0ZSgxMjQsODA2KSI+PGcgdHJhbnNmb3JtPSJzY2FsZSgxNS41KSI+PHJlY3QgaGVpZ2h0PSI2IiB3aWR0aD0iNiIvPjwvZz48L2c+PC9nPiYjeGE7PC9zdmc+;imageWidth=200;imageHeight=160;" vertex="1" parent="AgWrFcbd04pxLsHcmdk1-44">
            <mxGeometry x="19.569999999999993" y="-10" width="230" height="200" as="geometry" />
          </mxCell>
        </UserObject>
        <mxCell id="AgWrFcbd04pxLsHcmdk1-53" value="&lt;b&gt;&lt;font style=&quot;font-size: 22px;&quot;&gt;C.E.T Âº30&lt;/font&gt;&lt;/b&gt;" style="html=1;shadow=0;dashed=0;shape=mxgraph.bootstrap.rrect;rSize=5;strokeColor=#FFFFFF;html=1;whiteSpace=wrap;fillColor=#182E3E;fontColor=#FFFFFF;verticalAlign=bottom;align=center;spacing=20;fontSize=14;" vertex="1" parent="1">
          <mxGeometry x="460" y="120" width="250" height="230" as="geometry" />
        </mxCell>
        <mxCell id="AgWrFcbd04pxLsHcmdk1-54" value="Image cap" style="html=1;shadow=0;dashed=0;shape=mxgraph.bootstrap.topButton;rSize=5;perimeter=none;whiteSpace=wrap;fillColor=#182E3E;strokeColor=#FFFFFF;fontColor=#FFFFFF;resizeWidth=1;fontSize=18;" vertex="1" parent="AgWrFcbd04pxLsHcmdk1-53">
          <mxGeometry width="250" height="180" relative="1" as="geometry" />
        </mxCell>
        <UserObject label="" link="https://www.draw.io" id="AgWrFcbd04pxLsHcmdk1-55">
          <mxCell style="text;html=1;strokeColor=none;fillColor=none;whiteSpace=wrap;align=center;verticalAlign=middle;fontColor=#FFFFFF;fontStyle=4;fontSize=19;image=data:image/png,iVBORw0KGgoAAAANSUhEUgAAAJYAAACWCAMAAAAL34HQAAABJlBMVEX////9/f0RSpQBXbD+/v4AAAD39/fn5+fNzc2srKz5+vxFX5NGY51Ac7f6+vr19fXI0eLu7u7d4+2hr9GottM9WZSUlJTc3Ny+vr7ExMTKysrk5OR+fn7e3t6mpqZCQkK8yN0YYLCHnciGhoZjY2O1tbUXTJCcnJyfqsVgYGAQQ4ZfeqtthbFubm6YmJhWVlaImbwqKioMMWJNTU0YGBhsbGwOPHh3kcIeHh42b7ZoisDm6vEhS4HT2eWZpsMzMzNUf7xWb6REUGNJTVk7UW8yT3YbSIMjT5YsTXmyvNFNapEvWI5neZGPpMtWWWN7jLRKW3RffKJnanQ8Q1R7iqkaPWoVL1GlqrYgIy0QHzhKbpx4hphbcIxFSVQ4SWF/hI5eaH4iOVn5ztayAAAO9ElEQVR4nM1cC1vayhZNNE+qCUElCY+IhoC0BrTI8YHvqmhta89p77n3tvfac///n7izZ/KYQBKC8jjr+9AEErLYs1iz92QGhnkNWEXQyroptyudm9PB4PG6bluGVNVUheVe9cavAMcKqqhLjmX3Ptw3ljDubr9U2k5JF1VhIcQ4VlG1smTIRffL7d1SiMb9dQ9CVtYEhZ07KUET9ZLTrLSuTxtLQ7i7aVWajlQV59qWOFBVybBst3tLcXrao0LWdYuyqYvavNqSqLzktCutm9OQ07uHPsv1d1YCYqdE/mWQ/6w5YZXjQCGVvw04reyceZfO5XeptvyC2hLkP9u2JCo35SLYQXD1wd5ZjmZeOB+EbfkBtyXIf0bEApXbdVrlT7X+8AU59eEqeP30uW6D/GdiZb4dWEX3w31oB1dIULHH585C+d/ddipFeQZWximBHdyEgVo5L+RSzumvh/KfgZVBoETPDkKVD/byKZwIovKfqpXhxtOxyp8DlQ92awmNN3x24XwjCNntlylZGa3y+6DxrtZHRJ7yFurDu6laWXynly6oWCD5B44B8m+/wspiVQ6Cwm8mljROVDhR1NBOuVRlGBW2RAFtoCfRQ4SHyGgqfrOo/F9qZXSnF9rBbuBQpQNXEvarCl8/KDHSfvGoxDg2ep7XGca8aMlGh++UepubLlNx/JBR8gcrsya1Mo5O7e78QF3thCJnN2WGwbSqVoWxLQb9DWnBhsaj4FmIUkArKn9iZRPIn6gcp3bXQaA2ziPdi8iLPi2nznVMxtzMQGtI/vdfM1tZROW+HQyePEEF0HnVo2W4Te6ixJgHFK2WoyfQYqLyP81mZVRq9xyofPdh1A1CWq6ljdDqyFIyrWH5j8vKApUXkcoDQa3HukEVLkoaEZ24iWhdZGrEIGSh/BtY/p6VjTDzVE5Su0asoChoB3pIi3FlxnEnooXlP9bKIgXMXSAoNZ4TwO46ekDL6Rpdh3FahsTwTUMz60ZqI/ro0/KPycr81M5FduAd9y4pX/EgOM2yYmmsBR7KGk1DYXTLMhnLsjS0YTCqhYxVkhjG0JPfJSL/ZyL/sC2HC5iVncK86iha/kFW5slfcpAd+I23sZcgqHLJlFAEFA1D9Tc0TfEOUDWB/IMIcpIj4c/G6oYhCeQIQTJ1Zfh9c/mnUP5hVsYhi/7qB+opKYdSbR7BRJ+Bxyj6GzwveYcU+Qr8k/lN/PeIl4FJBQ7piviDbaJNd1SxtPxDK2N+J5wGu8mCEnqYQSmdFsic0FL3bbZygYLkoAMOeExY6XhnxkALc39iZSWdecQO9dBPyVdk9Il1DpIExMYpl8saI5TLMt4WQlqOT0tHmzL0UD1+U1M7/AE6s8TzhmLjzRhE5I9SDIf5C6K1nswJBeuCPyqTTQnHjMAMQ0VodXxaEm+gQKEv4QHfREbBw2aR3xcQ3/D0IUTk/7HIVCBcg34KLT2MfSotuLpHy8G0hHodRdDAx3WAtXbAW8nXoeS/wTS/QLieUtrQCLmk02pSjejwXoBBYOi4fb6HBHYQL66AmJ/8vGGMyi1s5JMPbvLYzsfR6hwhlWNawr7NYMn7hMuMcISFf8S7abQQ+tCUjT+QP9chh1lJbkbvSzaOVsVG+8QgLP4CGwSKj2ge8JsCox54tFpjaNUgRrcVlJcXr6EZzxNznkqEVs+2bT2WlsTbHi0W2Snnn8Bf6NB5Q5xQI3bSWakQrLuWxahVBzfj4Czp0B5/4LugZ1dmLC1l80gjtELACa7m01LH0eLOIVhfiybqRiSrA33PuyTVIzOlaNmyLFdjaaG2c4ZpaSUb2ylpxLG0zoDVvetUGU4QTfsGdh8SjnUzaosp83VriJZ/ejZaOUh2Gl+aEroeq+py7zTFvLJKnuHqvDtKSwZDU448WvU0Wg8QnWfbhIITmrFNzCu+U2xjo8xACxxulJYR+pb3fUxCH0zrtCfrKhBhhbJRuUk2L/S+RjZaWpSWVCyqUZfHlpsEFsbEGtdtycuWWM03r9hMGXU+LpuJFmNHaKEjRNwnVuH1CwWJj0/MohkmTyzLKAvEXDgFzAue3IkzL7aLPqTACNp4WlKEFvo8MiO0+H0/ZnIoh1HkILu5q1t6kFqyyLxcXK8W4k7Anti5IGlgt16vV5JoCZs0LZR68PUu6ejVC36/hcw4MSHndnATFksiVWdoUhOb126seZUuomlgN4kWEzUIEx/d0vzPxl+UmSQUIOG6rzhVrHeGA4DqPfPi4qCazaapcpxmYJjwXNkwxPAIyZDgn0he81F2mnJJ8LbltqPFvjsgt0t6HV/viqIIAqoUJaL6jb6wEIBlvb2xjbJXkqmaKJarul6SK99+e/v27feyuADoG+jS/+gUDajIQFxiVSoZjmw1i+7mn78h/FNaAL7Dlf/VQXWPicp+pC5UvVpt2+21Opv7B3++f//+1pLnjiK67vt/H1x065W2gx1Ccpo/Hjcad3eNu7cEG2/mDv/SiMbjyq6I/LQkFz8t/a2wU0W0JNnuPS6aCY0VB4pPGIPAWfNgZfEAWj9NEWmralqVDmTNK2pu0YD64hElgSwMJKFw/RfClZSdki6LnQ7SxrshOW38dHAGoZZLst2CjmcQPz4wP1rg9B9JsFC+ohtNtwsdz/kEtHKFbMhlpwXFWOOXIeJOkUXdoWzXn6EZY9OaWFq1reVs2KplpgXF2EdL9zIIRcOqv19KHYmI0ipkJAUoZKQFmU3DNkmwYKBZRCbR+wDhSh6JiNJan4DWQzZaOJP/DyovvCNQuMqlwCSy0VqbgNZ6NlpQuT4WS0HGjCofpPq224Xs9CHptBhax5ceVn0cR7C1NQEtbA6fHL+8wOGiTCJp4CaGVi0x1fRxmJ0WOOkbzxzocHkmsZdQA8TRYsdgAlo5ZA6DXwYVLLikZxJLySYxY1oPtDkE11Q03WwSk4ivfWZMqw/m8Ms3h0i4kEngrrE2f1rceVywiKemm8RMaRXQZU9/mdrIvRfaJGIr/lnSYp+wk1aFkRfBJJDqW89JJjFLWiNOSjFWwCQqOFx7MefOkBYeA4w4KX1ZUL1d/waqjxndnSEtMIfHdsRJqetSmUSMScyOVp+kWbHBYkD1aSbxIlonGWjhAaQfTWnYHMJwqUEmsTFiEjOjhZ20YogxevfDlWISs6LF7cU7aTRcvkksDZvErGiBk27Yw93OEC/cNZJMYuj8GdHCo23ISdWUHN/rGmNNYka08slOGglXYBJDt4BmQwvSrCQnpYBMQvdNIlpkz4ZWqpPS4SL5MzaJiOpnQgvupvjV/ZhwkfwZTCJy4zOG1toZwWgp3YcHwuUYWuejCXxCuFhsEnVcbhQiL4zQyohkWmAOjZ8pTkpd3sufwSR2qU8xA1qkYE1zUvrypGu8HiqyZ0AL0qy7dCeNhCsYibsKTSIDre3C9iS0sJN+QjlptnlZoHqn6OIxifWwxh1Pq8CeTUILD/0VpXQnpcMVFtmhSWSgdZg/nICWepXJSaPhCops/6Spa2s9qzmEgQmL7GB2RJRWbQJa+Vha2EmTc9JYXqB6r8j2b6tHaeVOMrM6ycXRwubwsZnJHMJwjebPQ4OUuYdtCscRIpfUK59rAhtH62xAjZNOEq6hIntkpJm+RbkaoXXIUK+NnIbfDZtDak4ai8hIXDwt6krDSiskH+vRyo/PSePDRUwizJ+TafVHvpartWRimBa+iT8mJ00OF20SybQut0ZxmE6rliUnjQ2XZxLflrz8OZlW7N2bVFp40sokTkrxGiqyp3lzBQrWN+Nz0vhwRU0iQkvLT4LCEC084+HnRE4aCVdYZPcjtEjWmRlbZxFapGBNru7HgDaJc9qA+pfbhcLh6ll/fbnWPzsmOwWy8zncyR+vFQon6NXtrQJNC9KsiZ2UDhc9EhfS0i6XT/L5k+Na/vPyWv5h6yRfuwx2DvP5cGc7X1uFQ5ePQ17cC52UChdVZD9RsTpe+7y1tb2G2K1tL+Odz3jncHmV3rkkO8fHa+jRD2jVJslJY8PlFdlY9fmA1fJ6Lvf5Us3llwu5/jHsnHg7W2hn+ySXq+GdWi53+DmXW1/L5daWV31e6pV3x+nlawVok7jK+S24vHyMuuYt6J6Pt8gjeQcOhcfypcfr4aVOSoEusmsv+A7SILw04qQxg8oThYsustnJ7iMOA+4rKufZqvux4aJMAppg9eWAcBeWJs5Jk8IV5M+FSJI1OVD3+URy0lcGK1pkhybxUhAnfYU5BLTorjH/yg57CuZAhSvIn2EkjjSH94eN0hxqM3IYFz4N5tCwX2cOPrwiG6v+6t0IdinsUTjfGcWGV91PYy26ZxJ4aOn1mKC6HwMIF/L61lQmeX1/tTn4gK5RNyz7r8cGBTJdLxVwzNJb+qTGD+f15hDwUhAvU27aFbdXx2h1No9gkuFfadMQf8ERf+53W+Sces+1m4auTe2HIbyfzIBpoLJF0K50/jdmMmjpI3r9/bee3fTOkR34hZuMo1nZeCmqponlalX3IBnFDsx+/FFNmt9a3oFWfnYt0z+nWhan/LsjyJ7wFGOYZazCH61q2M/wKww7SZOB8TKi07oliSoGekpRkIVNkRVmFrVKVXdcSMNQNh3f/0GqgKeZC7TLTpnUCGAme9r6DUgVqGnm8wIXzGSPnfKFpxBQ08znBliGU4cOKXY2B4zINL7Cypg5/34TWb8BzRgzmwOPyMDipvk2IQDWb1Sw6kemJ5BUARY3zbkJAbD4rBW7fgPuii/BSoF5NyEALz7D43JD03vxcG2wuGnuANW7ZP1G5HmcGnfb00n3XgBYfIbvwURm7uEpM7C4aTHBIuY1unL2gfQ6+qKCRS0+uwrNC49ARhc3zRvh4rPgVhqeTzf/XicKvPgMm5d/AxnXzZ3FWFYIvPiMWi/OwqDa8wJ6nSjClbM1vF8jvc6CLCtEsHIWrxeHuvlu4U3I4KpbapP14izDrfu9zoKD5a2cxeZ1hjvDxfU6USjIvHCX/U5FnWHjA/Q6C9U7AVY9Nq8nr9dZfBMCAvMiifICe50ognoDeh1zgb1OFGG9sZhEOQk483pETfjH38CyKEAzfhosfWovuteJAplXSf7+3TKn1YT/B1Wsc57YOaKiAAAAAElFTkSuQmCC;imageWidth=193;imageHeight=160;" vertex="1" parent="AgWrFcbd04pxLsHcmdk1-53">
            <mxGeometry x="20" y="-30" width="230" height="230" as="geometry" />
          </mxCell>
        </UserObject>
        <mxCell id="AgWrFcbd04pxLsHcmdk1-56" value="&lt;b&gt;&lt;font style=&quot;font-size: 22px;&quot;&gt;Proyecto&lt;/font&gt;&lt;/b&gt;" style="html=1;shadow=0;dashed=0;shape=mxgraph.bootstrap.rrect;rSize=5;strokeColor=#FFFFFF;html=1;whiteSpace=wrap;fillColor=#182E3E;fontColor=#FFFFFF;verticalAlign=bottom;align=center;spacing=20;fontSize=14;" vertex="1" parent="1">
          <mxGeometry x="800" y="120" width="250" height="230" as="geometry" />
        </mxCell>
        <mxCell id="AgWrFcbd04pxLsHcmdk1-57" value="Image cap" style="html=1;shadow=0;dashed=0;shape=mxgraph.bootstrap.topButton;rSize=5;perimeter=none;whiteSpace=wrap;fillColor=#182E3E;strokeColor=#FFFFFF;fontColor=#FFFFFF;resizeWidth=1;fontSize=18;" vertex="1" parent="AgWrFcbd04pxLsHcmdk1-56">
          <mxGeometry width="250" height="180" relative="1" as="geometry" />
        </mxCell>
      </root>
    </mxGraphModel>
  </diagram>
</mxfile>
